<svg width="23" height="23" viewBox="0 0 23 23" fill="none" xmlns="http://www.w3.org/2000/svg">
<path d="M11.7842 1.62891V5.62891" stroke="#F35757" stroke-width="2" stroke-linecap="round" stroke-linejoin="round"/>
<path d="M11.7842 17.6289V21.6289" stroke="#F35757" stroke-width="2" stroke-linecap="round" stroke-linejoin="round"/>
<path d="M4.71417 4.55896L7.54417 7.38896" stroke="#F35757" stroke-width="2" stroke-linecap="round" stroke-linejoin="round"/>
<path d="M16.0242 15.8689L18.8542 18.6989" stroke="#F35757" stroke-width="2" stroke-linecap="round" stroke-linejoin="round"/>
<path d="M1.78418 11.6289H5.78418" stroke="#F35757" stroke-width="2" stroke-linecap="round" stroke-linejoin="round"/>
<path d="M17.7842 11.6289H21.7842" stroke="#F35757" stroke-width="2" stroke-linecap="round" stroke-linejoin="round"/>
<path d="M4.71417 18.6989L7.54417 15.8689" stroke="#F35757" stroke-width="2" stroke-linecap="round" stroke-linejoin="round"/>
<path d="M16.0242 7.38896L18.8542 4.55896" stroke="#F35757" stroke-width="2" stroke-linecap="round" stroke-linejoin="round"/>
<path d="M12.69 7.94824H11.1408L11.474 10.3803L9.52505 8.88108L8.75879 10.247L11.0242 11.0632L8.75879 11.9128L9.55836 13.3287L11.4573 11.7962L11.1408 14.2116H12.6734L12.3235 11.7962L14.2225 13.2954L14.9888 11.9294L12.7067 11.0799L14.9888 10.2304L14.2392 8.89773L12.3235 10.3803L12.69 7.94824Z" fill="#F35757"/>
</svg>
