<svg width="39" height="40" viewBox="0 0 39 40" fill="none" xmlns="http://www.w3.org/2000/svg">
<path d="M4.20928 5.05477C4.20928 6.93946 4.13553 8.6357 4.20928 10.3237C4.30735 11.5349 4.86564 12.6626 5.7694 13.4749C6.67316 14.2872 7.85373 14.7225 9.0685 14.6913C8.67517 12.4624 9.88795 10.0451 8.03603 8.04571C9.77323 7.60322 11.0188 8.42265 11.0597 10.2254C11.1253 12.7738 11.1417 15.3141 11.0597 17.8543C10.9932 18.1034 10.8665 18.3323 10.6908 18.5209C10.515 18.7095 10.2956 18.852 10.0518 18.9359C5.25816 19.6652 0.333364 15.6582 0.0793399 10.6925C-0.0681578 7.84903 0.0383873 4.95644 0.0219987 2.13759C0.0219987 1.269 0.42351 0.867492 1.29211 0.875687C4.11095 0.875687 6.92159 0.801928 9.73224 0.916648C11.9613 1.08255 14.0492 2.07076 15.5907 3.68946C17.1322 5.30815 18.0172 7.44185 18.0741 9.67637C18.0741 11.3152 18.0741 12.9541 18.0741 14.6831H20.8765C20.8765 13.0442 20.8765 11.4054 20.8765 9.7665C20.8785 8.30738 21.2399 6.87123 21.9288 5.58497C22.6176 4.2987 23.6127 3.20193 24.8262 2.39161C26.2484 1.37415 27.9531 0.826925 29.7018 0.826523C32.2912 0.826523 34.8724 0.826523 37.4536 0.826523C38.5435 0.826523 38.9696 1.25261 38.9532 2.34245C38.9122 4.92366 38.9532 7.50488 38.9532 10.0861C38.9187 11.3319 38.6301 12.5574 38.1048 13.6876C37.5796 14.8178 36.8289 15.8286 35.8988 16.6582C34.9688 17.4877 33.879 18.1184 32.6964 18.5115C31.5137 18.9046 30.2632 19.0518 29.0217 18.9441C28.8578 18.9537 28.6938 18.9272 28.5413 18.8665C28.3888 18.8058 28.2514 18.7124 28.1389 18.5928C28.0264 18.4733 27.9415 18.3305 27.8901 18.1746C27.8388 18.0187 27.8222 17.8534 27.8417 17.6904C27.8417 15.3386 27.8417 12.9869 27.8827 10.6351C27.8827 8.46362 28.7758 7.70973 31.0047 7.93098C29.7919 9.28304 29.5543 10.9137 30.0214 14.593C31.1998 14.6366 32.3495 14.2225 33.2293 13.4373C34.1092 12.6522 34.6511 11.5569 34.7413 10.3811C34.856 8.66026 34.7413 6.92307 34.7413 5.18588C32.7129 5.05966 30.6781 5.08159 28.6529 5.25145C26.4732 5.57922 25.0884 7.6114 25.0556 9.89761C25.0556 12.3559 25.0556 14.8142 25.0556 17.2725C25.0556 18.6 24.7524 18.9114 23.4167 18.9114C20.7208 18.9114 18.0249 18.9114 15.329 18.9114C14.2883 18.9114 13.8786 18.4853 13.8868 17.461C13.8868 15.0027 13.8868 12.6017 13.8868 10.1762C13.9299 9.48059 13.8247 8.78374 13.578 8.13189C13.3314 7.48003 12.949 6.88807 12.4562 6.39525C11.9633 5.90242 11.3714 5.52 10.7195 5.27335C10.0677 5.02671 9.37081 4.92149 8.67519 4.96464L4.20928 5.05477Z" fill="#318371"/>
<path d="M29.8887 25.9994C30.2738 28.2283 29.0693 30.662 30.9294 32.6614C29.0447 33.0547 27.9221 32.2517 27.8893 30.3178C27.8401 27.9333 27.8893 25.5406 27.8893 23.156C27.8893 22.0662 28.3891 21.6728 29.4544 21.6892C35.1085 21.7712 38.9598 25.6061 38.9762 31.2274C38.9762 33.5437 38.9762 35.8572 38.9762 38.168C38.9762 39.6102 38.7877 39.8069 37.4029 39.8069C34.8954 39.8069 32.388 39.8069 29.8805 39.8069C27.4984 39.7939 25.2184 38.8385 23.5386 37.1495C21.8588 35.4605 20.9159 33.1752 20.9159 30.7931C20.9159 29.2198 20.9159 27.6465 20.9159 25.9749H18.1217C18.1217 27.3187 18.0561 28.6216 18.1217 29.9163C18.225 31.2377 18.0422 32.5658 17.5858 33.8101C17.1293 35.0544 16.41 36.1856 15.4767 37.1267C14.5434 38.0678 13.4181 38.7965 12.1777 39.2633C10.9372 39.7301 9.61064 39.9238 8.28848 39.8314C6.05963 39.6921 3.81439 39.7741 1.58554 39.8314C0.520274 39.8314 0.0204088 39.4791 0.0367975 38.3565C0.0367975 35.7343 0.0367975 33.1121 0.0367975 30.4899C0.0790884 29.2938 0.356613 28.1177 0.853528 27.0288C1.35044 25.9399 2.05701 24.9596 2.93287 24.1439C3.80872 23.3282 4.8367 22.693 5.9581 22.2746C7.07949 21.8562 8.27233 21.6629 9.46846 21.7056C10.7877 21.7548 11.1073 22.058 11.1073 23.3445C11.1073 25.4968 11.1073 27.652 11.1073 29.8098C11.1073 32.137 10.378 32.8171 7.69849 32.7352C9.13249 31.9157 9.09151 30.7603 9.06693 29.5804C9.04234 28.4004 9.06693 27.1958 9.06693 26.0158C7.88642 25.9637 6.73066 26.3649 5.83639 27.1373C4.94211 27.9097 4.37702 28.9948 4.25687 30.1703C4.12576 31.9239 4.25687 33.6939 4.25687 35.5212C6.18443 35.6241 8.11651 35.6077 10.0421 35.4721C11.1601 35.2839 12.1716 34.6954 12.8878 33.8164C13.604 32.9373 13.9759 31.8278 13.9344 30.6948C13.9344 28.2365 13.8934 25.7782 13.8934 23.3199C13.8934 21.9678 14.1638 21.681 15.5323 21.681C18.22 21.681 20.9159 21.7384 23.6118 21.722C24.7099 21.722 25.1196 22.1727 25.1032 23.2625C25.0622 25.6798 25.1032 28.1136 25.1032 30.5309C25.0715 31.209 25.182 31.8862 25.4276 32.519C25.6731 33.1518 26.0483 33.7263 26.5291 34.2055C27.0098 34.6847 27.5855 35.0581 28.2191 35.3016C28.8528 35.5451 29.5303 35.6534 30.2083 35.6196H34.7643C34.7643 33.6693 34.9036 31.8174 34.7643 29.9982C34.5981 28.8431 34.0055 27.792 33.1031 27.0519C32.2008 26.3118 31.054 25.9364 29.8887 25.9994Z" fill="#318371"/>
</svg>
