<?xml version="1.0" encoding="UTF-8"?>
<svg width="752pt" height="752pt" version="1.1" viewBox="0 0 752 752" xmlns="http://www.w3.org/2000/svg">
 <g fill="#d0045b">
  <path d="m468.36 271.38-8.7734 236.82c-0.14844 4.0664-3.7305 7.5078-7.8125 7.5078h-151.54c-4.0781 0-7.6641-3.4531-7.8125-7.5078l-8.7734-236.82c-0.24219-6.5352-5.7344-11.637-12.27-11.395-6.5352 0.24219-11.637 5.7383-11.395 12.27l8.7734 236.83c0.62109 16.777 14.656 30.309 31.477 30.309h151.54c16.809 0 30.855-13.508 31.477-30.309l8.7695-236.83c0.24219-6.5312-4.8594-12.027-11.391-12.27-6.5352-0.24219-12.027 4.8594-12.27 11.395z"/>
  <path d="m366.53 319.17v161.02c0 5.2344 4.2383 9.4727 9.4688 9.4727 5.2344 0 9.4727-4.2383 9.4727-9.4727v-161.02c0-5.2305-4.2383-9.4727-9.4727-9.4727-5.2305 0-9.4688 4.2422-9.4688 9.4727z"/>
  <path d="m314.44 319.45 4.7344 161.02c0.15234 5.2266 4.5156 9.3398 9.7461 9.1875s9.3438-4.5156 9.1875-9.7461l-4.7344-161.02c-0.15234-5.2305-4.5156-9.3438-9.7461-9.1914-5.2305 0.15625-9.3438 4.5195-9.1875 9.7461z"/>
  <path d="m418.63 318.89-4.7383 161.02c-0.15234 5.2305 3.9609 9.5938 9.1914 9.7461 5.2266 0.15234 9.5898-3.9609 9.7461-9.1875l4.7344-161.02c0.15234-5.2266-3.9609-9.5898-9.1875-9.7461-5.2305-0.15234-9.5938 3.9609-9.7461 9.1914z"/>
  <path d="m257.61 276.55h236.79c6.5352 0 11.836-5.3008 11.836-11.84 0-6.5391-5.3008-11.84-11.836-11.84h-236.79c-6.5391 0-11.84 5.3008-11.84 11.84 0 6.5391 5.3008 11.84 11.84 11.84z"/>
  <path d="m340.03 260.86 4.9297-17.254c1.0547-3.6992 5.8477-7.3086 9.6914-7.3086h42.703c3.8516 0 8.6367 3.6094 9.6953 7.3086l4.9297 17.254 22.766-6.5039-4.9297-17.258c-3.9609-13.863-18.039-24.48-32.461-24.48h-42.703c-14.414 0-28.5 10.621-32.461 24.48l-4.9297 17.258z"/>
 </g>
</svg>
