<?xml version="1.0" encoding="UTF-8"?>
<svg width="752pt" height="752pt" version="1.1" viewBox="0 0 752 752" xmlns="http://www.w3.org/2000/svg">
 <g fill="#dc4531">
  <path d="m479 293.49-17.914-17.91-85.082 85.086-85.078-85.086-17.918 17.91 85.082 85.094-85.074 85.07 17.91 17.91 85.078-85.062 85.082 85.062 17.914-17.91-85.078-85.07z"/>
  <path d="m376 593.88c-119.59 0-216.89-97.297-216.89-216.89s97.297-216.89 216.89-216.89 216.89 97.297 216.89 216.89c0.003906 119.59-97.293 216.89-216.89 216.89zm0-408.46c-105.63 0-191.57 85.938-191.57 191.57 0 105.63 85.941 191.57 191.57 191.57 105.63 0 191.57-85.938 191.57-191.57 0.003907-105.63-85.938-191.57-191.57-191.57z"/>
 </g>
</svg>
