<?xml version="1.0" encoding="UTF-8"?>
<svg width="752pt" height="752pt" version="1.1" viewBox="0 0 752 752" xmlns="http://www.w3.org/2000/svg">
 <path d="m207.14 166.39h337.72c22.453 0 40.75 18.301 40.75 40.742v337.73c0 22.441-18.301 40.742-40.75 40.742h-337.72c-22.441 0-40.742-18.301-40.742-40.742v-337.73c0-22.441 18.301-40.742 40.742-40.742zm168.86 80.715c15.426 0 27.934 12.508 27.934 27.934s-12.508 27.934-27.934 27.934c-15.434 0-27.934-12.508-27.934-27.934s12.5-27.934 27.934-27.934zm26.559 110.35v120.88c0 35.133-53.117 35.133-53.117 0v-120.88c0-35.133 53.117-35.133 53.117 0zm142.3-156.45h-337.72c-3.3398 0-6.1367 2.793-6.1367 6.1289v337.73c0 3.332 2.7969 6.1289 6.1367 6.1289h337.72c3.3438 0 6.1406-2.7969 6.1406-6.1289v-337.73c0-3.3398-2.7969-6.1289-6.1406-6.1289z" fill="#549efd"/>
</svg>
