<?xml version="1.0" encoding="UTF-8"?>
<svg width="752pt" height="752pt" version="1.1" viewBox="0 0 752 752" xmlns="http://www.w3.org/2000/svg">
 <path d="m574.91 376c0 109.85-89.055 198.91-198.91 198.91s-198.9-89.055-198.9-198.91 89.051-198.9 198.9-198.9 198.91 89.051 198.91 198.9zm18.941 0c0 120.32-97.531 217.85-217.85 217.85-120.31 0-217.85-97.531-217.85-217.85 0-120.31 97.535-217.85 217.85-217.85 120.32 0 217.85 97.535 217.85 217.85zm-315.29-12.992c3.6719-3.6328 9.5859-3.625 13.25 0.015626l57.961 57.613 110.46-109.11c3.6797-3.6328 9.6016-3.6172 13.258 0.039062 3.6914 3.6875 3.6758 9.6797-0.042969 13.348l-113.45 111.96c-5.7031 5.6289-14.875 5.6133-20.559-0.03125l-60.895-60.48c-3.707-3.6836-3.7031-9.6836 0.011719-13.359z" fill="#009045" fill-rule="evenodd"/>
</svg>
