<?xml version="1.0" encoding="UTF-8"?>
<svg width="752pt" height="752pt" version="1.1" viewBox="0 0 752 752" xmlns="http://www.w3.org/2000/svg">
 <g fill="#ff8836">
  <path d="m497.24 248.13c-8.9961-7.1055-22.258-5.2109-29.363 3.7891-7.1055 8.9961-5.2109 22.258 3.7891 29.363 38.359 29.836 60.145 74.352 60.145 122.66 0 85.719-70.09 155.34-155.81 155.34-85.715 0-155.81-69.617-155.81-155.34 0-81.457 63.461-148.7 143.5-154.86l-19.418 19.418c-8.0508 8.0508-8.0508 21.312 0 29.363 4.2617 4.2617 9.4727 6.1562 14.68 6.1562 5.2109 0 10.418-1.8945 14.68-6.1562l55.41-55.41c8.0508-8.0508 8.0508-21.312 0-29.363l-55.406-55.883c-8.0508-8.0508-21.312-8.0508-29.363 0s-8.0508 21.312 0 29.363l20.363 20.363c-103.24 6.1562-185.64 91.875-185.64 197.01 0 108.92 88.559 197.01 197.01 197.01s197.01-88.559 197.01-197.01c0.003907-61.562-27.465-117.92-75.77-155.81z"/>
  <path d="m323.43 403.94c0 15.695-12.723 28.418-28.414 28.418-15.695 0-28.414-12.723-28.414-28.418 0-15.691 12.719-28.414 28.414-28.414 15.691 0 28.414 12.723 28.414 28.414"/>
  <path d="m404.42 403.94c0 15.695-12.723 28.418-28.418 28.418-15.691 0-28.414-12.723-28.414-28.418 0-15.691 12.723-28.414 28.414-28.414 15.695 0 28.418 12.723 28.418 28.414"/>
  <path d="m485.4 403.94c0 15.695-12.723 28.418-28.414 28.418-15.695 0-28.414-12.723-28.414-28.418 0-15.691 12.719-28.414 28.414-28.414 15.691 0 28.414 12.723 28.414 28.414"/>
 </g>
</svg>
