<?xml version="1.0" encoding="UTF-8"?>
<svg width="752pt" height="752pt" version="1.1" viewBox="0 0 752 752" xmlns="http://www.w3.org/2000/svg">
 <path d="m375.97 191.33c-12.922 0-24.668 6.375-31.379 17.621l-176.87 297.85c-6.543 11.242-6.543 24.836 0.16797 36.078 6.7109 11.242 18.457 17.789 31.379 17.789h353.39c12.922 0 24.836-6.543 31.379-17.789 6.7109-11.242 6.8789-24.836 0.16797-36.078l-176.86-297.85c-6.543-11.242-18.457-17.621-31.379-17.621zm0 28.359c2.5156 0 5.875 1.8477 7.0469 3.6914l176.7 297.85c1.0078 1.8477 1.0078 5.3711 0 7.2148-1.1758 1.8477-4.5312 3.8594-7.0469 3.8594h-353.39c-2.5156 0-5.875-2.0117-6.8789-3.8594-1.1758-1.8477-1.1758-5.3711 0-7.2148l176.7-297.85c1.0078-1.8477 4.3633-3.6914 6.8789-3.6914zm0 70.98c-7.8867 0-14.094 6.375-14.094 14.262v132.57c0 7.8867 6.207 14.262 14.094 14.262 7.8867 0 14.262-6.375 14.262-14.262v-132.57c0-7.8867-6.375-14.262-14.262-14.262zm0 170.49c-10.402 0-18.961 8.5586-18.961 18.961 0 10.57 8.5586 18.961 18.961 18.961 10.57 0 18.961-8.3906 18.961-18.961 0-10.402-8.3906-18.961-18.961-18.961z" fill="#ff8836"/>
</svg>
