<svg width="1531" height="770" viewBox="0 0 1531 770" fill="none" xmlns="http://www.w3.org/2000/svg">
<g opacity="0.1">
<path d="M659.386 106.13C625.299 106.13 594.62 104.796 564.09 106.13C542.184 107.904 521.789 118.001 507.097 134.347C492.405 150.693 484.533 172.045 485.097 194.016C525.409 186.902 569.129 208.836 605.291 175.342C613.294 206.761 598.474 229.289 565.869 230.03C519.777 231.215 473.833 231.512 427.89 230.03C423.385 228.826 419.245 226.535 415.834 223.356C412.423 220.178 409.845 216.209 408.327 211.8C395.137 125.101 467.609 36.0293 557.421 31.435C608.848 28.7673 661.165 30.6943 712.147 30.3979C727.857 30.3979 735.118 37.6597 734.97 53.3694C734.97 104.352 736.304 155.186 734.229 206.02C731.229 246.336 713.356 284.099 684.08 311.978C654.803 339.858 616.213 355.865 575.798 356.893C546.157 356.893 516.517 356.893 485.246 356.893L485.246 407.579C514.886 407.579 544.527 407.579 574.168 407.579C600.558 407.614 626.533 414.151 649.797 426.61C673.061 439.069 692.897 457.067 707.553 479.013C725.955 504.735 735.852 535.569 735.859 567.195C735.859 614.028 735.859 660.712 735.859 707.397C735.859 727.108 728.153 734.815 708.442 734.518C661.757 733.777 615.073 734.518 568.388 734.518C545.857 733.896 523.69 728.674 503.25 719.175C482.81 709.675 464.527 696.098 449.524 679.277C434.52 662.456 423.114 642.745 416.004 621.356C408.894 599.967 406.231 577.35 408.179 554.894C408.006 551.93 408.486 548.965 409.584 546.206C410.682 543.448 412.371 540.963 414.533 538.929C416.695 536.894 419.277 535.358 422.097 534.429C424.917 533.5 427.906 533.201 430.854 533.553C473.389 533.553 515.924 533.553 558.458 534.294C597.733 534.294 611.368 550.448 607.366 590.76C582.912 568.826 553.419 564.528 486.876 572.975C486.085 594.289 493.576 615.082 507.777 630.996C521.977 646.909 541.787 656.709 563.053 658.341C594.176 660.416 625.595 658.341 657.015 658.341C659.298 621.656 658.901 584.853 655.829 548.225C649.901 508.803 613.146 483.756 571.797 483.163C527.336 483.163 482.874 483.163 438.413 483.163C414.404 483.163 408.772 477.68 408.772 453.522C408.772 404.763 408.772 356.004 408.772 307.244C408.772 288.422 416.478 281.012 435.004 281.16C479.465 281.16 522.89 281.16 566.758 281.16C579.339 281.941 591.943 280.037 603.732 275.577C615.522 271.116 626.228 264.199 635.142 255.286C644.055 246.372 650.972 235.666 655.433 223.876C659.894 212.087 661.797 199.483 661.016 186.902L659.386 106.13Z" fill="#214927"/>
<path d="M280.574 570.57C240.263 577.536 196.246 555.75 160.084 589.393C152.97 555.306 167.494 535.001 202.471 534.408C245.598 533.519 288.874 534.408 332.002 534.408C351.713 534.408 358.827 543.449 358.53 562.716C357.048 664.977 287.689 734.633 186.02 734.929C144.128 734.929 102.284 734.929 60.4906 734.929C34.4066 734.929 30.8496 731.521 30.8496 706.474C30.8496 661.124 30.8496 615.773 30.8496 570.423C31.0846 527.34 48.364 486.101 78.9117 455.72C109.459 425.339 150.792 408.286 193.875 408.286C222.33 408.286 250.785 408.286 281.019 408.286L281.019 357.749C256.713 357.749 233.149 356.563 209.733 357.749C185.834 359.618 161.814 356.312 139.309 348.056C116.804 339.801 96.3442 326.79 79.3238 309.91C62.3033 293.031 49.1225 272.679 40.6805 250.243C32.2385 227.808 28.734 203.816 30.4051 179.903C32.9245 139.591 31.4425 98.983 30.4051 58.6713C30.4051 39.4047 36.7777 30.364 57.0817 30.6604C104.507 30.6604 151.933 30.6604 199.358 30.6604C220.992 31.4253 242.263 36.4446 261.957 45.432C281.651 54.4194 299.381 67.1985 314.134 83.0395C328.888 98.8805 340.377 117.473 347.943 137.755C355.51 158.037 359.007 179.611 358.234 201.244C357.345 225.105 351.861 230.885 328.593 230.885C289.665 230.885 250.687 230.885 211.659 230.885C169.569 230.885 157.268 217.695 158.75 169.232C173.571 195.168 194.468 194.427 215.809 193.982C237.151 193.537 258.937 193.982 280.278 193.982C281.221 172.631 273.964 151.728 259.995 135.553C246.025 119.379 226.399 109.159 205.138 106.986C173.422 104.614 141.41 106.986 108.36 106.986C106.5 141.848 106.797 176.792 109.25 211.618C112.654 231.841 123.297 250.134 139.195 263.087C155.094 276.04 175.16 282.768 195.653 282.016C240.115 282.016 284.576 281.275 329.038 281.275C353.492 281.275 358.679 286.166 358.679 310.916C358.679 359.527 357.641 408.286 357.937 457.045C357.937 476.905 349.787 484.315 330.075 484.019C286.355 483.278 242.338 484.019 198.617 484.019C186.353 483.445 174.106 485.444 162.66 489.885C151.214 494.326 140.824 501.113 132.157 509.808C123.49 518.503 116.737 528.915 112.332 540.374C107.928 551.834 105.969 564.089 106.582 576.351L106.582 658.752C141.855 658.752 175.349 661.272 208.251 658.752C229.143 655.747 248.154 645.029 261.539 628.708C274.925 612.388 281.715 591.647 280.574 570.57V570.57Z" fill="#214927"/>
</g>
<g opacity="0.1">
<path d="M1424.53 110.317C1390.44 110.317 1359.77 108.983 1329.24 110.317C1307.33 112.091 1286.93 122.188 1272.24 138.534C1257.55 154.879 1249.68 176.232 1250.24 198.202C1290.55 191.088 1334.27 213.023 1370.44 179.529C1378.44 210.948 1363.62 233.475 1331.01 234.216C1284.92 235.402 1238.98 235.698 1193.04 234.216C1188.53 233.013 1184.39 230.722 1180.98 227.543C1177.57 224.364 1174.99 220.396 1173.47 215.987C1160.28 129.287 1232.75 40.2161 1322.57 35.6217C1373.99 32.954 1426.31 34.8811 1477.29 34.5846C1493 34.5846 1500.26 41.8465 1500.12 57.5562C1500.12 108.539 1501.45 159.373 1499.37 210.207C1496.37 250.523 1478.5 288.286 1449.23 316.165C1419.95 344.044 1381.36 360.052 1340.94 361.08C1311.3 361.08 1281.66 361.08 1250.39 361.08L1250.39 411.765C1280.03 411.765 1309.67 411.765 1339.31 411.765C1365.7 411.801 1391.68 418.338 1414.94 430.797C1438.21 443.256 1458.04 461.254 1472.7 483.2C1491.1 508.922 1501 539.755 1501 571.382C1501 618.215 1501 664.899 1501 711.584C1501 731.295 1493.3 739.001 1473.59 738.705C1426.9 737.964 1380.22 738.705 1333.53 738.705C1311 738.082 1288.84 732.861 1268.4 723.362C1247.96 713.862 1229.67 700.285 1214.67 683.464C1199.67 666.643 1188.26 646.932 1181.15 625.543C1174.04 604.154 1171.38 581.537 1173.32 559.081C1173.15 556.117 1173.63 553.152 1174.73 550.393C1175.83 547.634 1177.52 545.15 1179.68 543.115C1181.84 541.08 1184.42 539.544 1187.24 538.616C1190.06 537.687 1193.05 537.388 1196 537.739C1238.53 537.739 1281.07 537.74 1323.6 538.481C1362.88 538.481 1376.51 554.635 1372.51 594.947C1348.06 573.012 1318.57 568.714 1252.02 577.162C1251.23 598.476 1258.72 619.269 1272.92 635.182C1287.12 651.096 1306.93 660.896 1328.2 662.528C1359.32 664.603 1390.74 662.528 1422.16 662.528C1424.44 625.843 1424.05 589.04 1420.97 552.412C1415.05 512.99 1378.29 487.943 1336.94 487.35C1292.48 487.35 1248.02 487.35 1203.56 487.35C1179.55 487.35 1173.92 481.866 1173.92 457.709C1173.92 408.95 1173.92 360.19 1173.92 311.431C1173.92 292.609 1181.62 285.199 1200.15 285.347C1244.61 285.347 1288.04 285.347 1331.9 285.347C1344.48 286.127 1357.09 284.224 1368.88 279.763C1380.67 275.302 1391.37 268.386 1400.29 259.472C1409.2 250.559 1416.12 239.853 1420.58 228.063C1425.04 216.273 1426.94 203.67 1426.16 191.089L1424.53 110.317Z" fill="#214927"/>
<path d="M1045.72 574.757C1005.41 581.723 961.392 559.937 925.23 593.579C918.116 559.492 932.64 539.188 967.616 538.595C1010.74 537.706 1054.02 538.595 1097.15 538.595C1116.86 538.595 1123.97 547.636 1123.68 566.902C1122.19 669.164 1052.83 738.82 951.166 739.116C909.273 739.116 867.43 739.116 825.636 739.116C799.552 739.116 795.995 735.708 795.995 710.661C795.995 665.311 795.995 619.96 795.995 574.609C796.23 531.527 813.51 490.288 844.057 459.907C874.605 429.526 915.937 412.473 959.02 412.473C987.476 412.473 1015.93 412.473 1046.16 412.473L1046.16 361.935C1021.86 361.935 998.294 360.75 974.878 361.935C950.98 363.805 926.959 360.499 904.455 352.243C881.95 343.988 861.49 330.977 844.469 314.097C827.449 297.217 814.268 276.866 805.826 254.43C797.384 231.995 793.879 208.002 795.551 184.089C798.07 143.778 796.588 103.17 795.551 62.8581C795.551 43.5914 801.923 34.5507 822.227 34.8471C869.653 34.8471 917.078 34.8471 964.504 34.8471C986.138 35.612 1007.41 40.6314 1027.1 49.6188C1046.8 58.6061 1064.53 71.3853 1079.28 87.2263C1094.03 103.067 1105.52 121.66 1113.09 141.941C1120.66 162.223 1124.15 183.797 1123.38 205.431C1122.49 229.292 1117.01 235.072 1093.74 235.072C1054.81 235.072 1015.83 235.072 976.805 235.072C934.715 235.072 922.414 221.882 923.896 173.419C938.716 199.355 959.613 198.613 980.955 198.169C1002.3 197.724 1024.08 198.169 1045.42 198.169C1046.37 176.818 1039.11 155.914 1025.14 139.74C1011.17 123.566 991.545 113.346 970.284 111.173C938.568 108.801 906.556 111.173 873.506 111.173C871.645 146.035 871.942 180.979 874.395 215.805C877.799 236.027 888.443 254.321 904.341 267.274C920.239 280.227 940.306 286.955 960.799 286.202C1005.26 286.202 1049.72 285.462 1094.18 285.462C1118.64 285.462 1123.82 290.352 1123.82 315.103C1123.82 363.714 1122.79 412.473 1123.08 461.232C1123.08 481.092 1114.93 488.502 1095.22 488.206C1051.5 487.465 1007.48 488.206 963.763 488.206C951.499 487.632 939.251 489.631 927.806 494.072C916.36 498.513 905.97 505.299 897.303 513.994C888.635 522.69 881.882 533.101 877.478 544.561C873.074 556.021 871.115 568.276 871.728 580.537L871.728 662.939C907 662.939 940.495 665.459 973.396 662.939C994.289 659.934 1013.3 649.215 1026.68 632.895C1040.07 616.574 1046.86 595.834 1045.72 574.757V574.757Z" fill="#214927"/>
</g>
</svg>
