<svg width="570" height="139" viewBox="0 0 570 139" fill="none" xmlns="http://www.w3.org/2000/svg">
<path d="M13.0975 13.1565C13.0975 19.0208 12.868 24.2988 13.0975 29.5512C13.4026 33.3199 15.1397 36.8286 17.9519 39.3562C20.764 41.8838 24.4374 43.2382 28.2172 43.1411C26.9934 36.2059 30.767 28.6843 25.0047 22.463C30.41 21.0861 34.2856 23.6358 34.4131 29.2452C34.6171 37.1748 34.6681 45.0789 34.4131 52.983C34.2061 53.758 33.8119 54.4703 33.265 55.0572C32.7181 55.6441 32.0354 56.0875 31.2769 56.3486C16.3611 58.6179 1.03728 46.1498 0.246871 30.6985C-0.212077 21.851 0.119445 12.8505 0.0684504 4.07948C0.0684504 1.37678 1.31778 0.127479 4.02048 0.152977C12.7915 0.152977 21.537 -0.0765288 30.2825 0.280431C37.2184 0.796654 43.7152 3.87153 48.5115 8.9082C53.3079 13.9449 56.0618 20.584 56.2387 27.5369C56.2387 32.6363 56.2387 37.7357 56.2387 43.1156H64.9586C64.9586 38.0162 64.9586 32.9167 64.9586 27.8173C64.9648 23.2772 66.0893 18.8085 68.2328 14.8062C70.3762 10.8039 73.4726 7.39124 77.2483 4.86988C81.6735 1.70397 86.978 0.00125143 92.4191 0C100.476 0 108.508 0 116.539 0C119.931 0 121.256 1.32579 121.205 4.71691C121.078 12.7485 121.205 20.7801 121.205 28.8117C121.098 32.688 120.2 36.5015 118.566 40.0181C116.931 43.5346 114.596 46.68 111.702 49.2612C108.808 51.8423 105.417 53.8048 101.737 55.0279C98.0571 56.2511 94.1661 56.7092 90.3028 56.3741C89.7929 56.4038 89.2827 56.3213 88.8081 56.1325C88.3336 55.9436 87.9062 55.6529 87.5561 55.281C87.206 54.909 86.9417 54.4649 86.7819 53.9797C86.6221 53.4946 86.5707 52.9803 86.6312 52.4731C86.6312 45.1554 86.6313 37.8378 86.7588 30.5201C86.7588 23.7633 89.5379 21.4176 96.4732 22.106C92.6996 26.313 91.9601 31.3869 93.4135 42.8352C97.0803 42.9711 100.658 41.6825 103.395 39.2394C106.133 36.7962 107.819 33.3882 108.1 29.7296C108.457 24.3752 108.1 18.9698 108.1 13.5644C101.788 13.1717 95.4569 13.2399 89.1555 13.7684C82.3732 14.7883 78.0642 21.1116 77.9622 28.2253C77.9622 35.8744 77.9622 43.5236 77.9622 51.1727C77.9622 55.3032 77.0188 56.2721 72.8628 56.2721C64.4742 56.2721 56.0857 56.2721 47.6971 56.2721C44.459 56.2721 43.1841 54.9463 43.2096 51.7592C43.2096 44.11 43.2096 36.6393 43.2096 29.0922C43.3439 26.9277 43.0164 24.7594 42.249 22.7311C41.4816 20.7028 40.2916 18.8609 38.7582 17.3274C37.2247 15.794 35.3828 14.604 33.3545 13.8366C31.3262 13.0692 29.1579 12.7417 26.9934 12.876L13.0975 13.1565Z" fill="#0C3B33"/>
<path d="M93.0045 78.3271C94.2029 85.2623 90.4549 92.8349 96.2427 99.0562C90.3784 100.28 86.8852 97.7814 86.7832 91.7641C86.6302 84.3444 86.7832 76.8992 86.7832 69.4796C86.7832 66.0884 88.3385 64.8645 91.6532 64.9155C109.246 65.1705 121.23 77.1031 121.281 94.5942C121.281 101.801 121.281 109 121.281 116.19C121.281 120.678 120.694 121.29 116.385 121.29C108.583 121.29 100.781 121.29 92.9791 121.29C85.5671 121.249 78.4725 118.277 73.2457 113.021C68.0189 107.766 65.0851 100.655 65.0852 93.2429C65.0852 88.3474 65.0852 83.452 65.0852 78.2506H56.3906C56.3906 82.4321 56.1867 86.4862 56.3906 90.5147C56.7123 94.6262 56.1435 98.7587 54.7232 102.63C53.303 106.502 51.0646 110.022 48.1606 112.95C45.2566 115.878 41.7553 118.146 37.8955 119.598C34.0357 121.051 29.908 121.654 25.7941 121.366C18.8588 120.933 11.8726 121.188 4.9374 121.366C1.62277 121.366 0.0674067 120.27 0.118401 116.777C0.118401 108.618 0.118401 100.459 0.118401 92.2995C0.249992 88.5776 1.11353 84.9181 2.65971 81.53C4.2059 78.1419 6.40443 75.0916 9.12971 72.5534C11.855 70.0152 15.0536 68.0387 18.5429 66.7369C22.0322 65.4352 25.7438 64.8336 29.4657 64.9665C33.5707 65.1195 34.5651 66.0629 34.5651 70.0659C34.5651 76.7632 34.5651 83.469 34.5651 90.1832C34.5651 97.4244 32.2958 99.5407 23.9583 99.2858C28.4203 96.736 28.2927 93.1409 28.2162 89.4693C28.1397 85.7977 28.2162 82.0496 28.2162 78.378C24.543 78.2158 20.9468 79.4643 18.1642 81.8676C15.3816 84.271 13.6233 87.6474 13.2494 91.3051C12.8415 96.7615 13.2494 102.269 13.2494 107.955C19.2472 108.275 25.259 108.224 31.2504 107.802C34.7294 107.216 37.8767 105.385 40.1051 102.65C42.3335 99.9148 43.491 96.4625 43.3616 92.9369C43.3616 85.2878 43.2341 77.6386 43.2341 69.9894C43.2341 65.7824 44.0755 64.89 48.3335 64.89C56.6966 64.89 65.0851 65.0685 73.4737 65.0175C76.8903 65.0175 78.1652 66.4198 78.1142 69.811C77.9867 77.3326 78.1142 84.9053 78.1142 92.427C78.0155 94.5369 78.3593 96.644 79.1234 98.6131C79.8875 100.582 81.055 102.37 82.5509 103.861C84.0468 105.352 85.8381 106.514 87.8096 107.271C89.7812 108.029 91.8894 108.366 93.9989 108.261H108.175C108.175 102.192 108.609 96.43 108.175 90.7696C107.658 87.1753 105.814 83.9048 103.007 81.6019C100.199 79.2991 96.6306 78.1308 93.0045 78.3271Z" fill="#0C3B33"/>
<path d="M216.401 91.5294H230.312V6.07254H216.401V42.7145H176.499V6.07254H162.588V91.5294H176.499V54.1497H216.401V91.5294Z" fill="#0C3B33"/>
<path d="M276.935 34.4762C287.307 34.4762 295.482 41.116 295.726 51.5676H258.509C259.973 40.8701 267.539 34.4762 276.935 34.4762ZM308.417 71.3641H293.408C290.845 76.6513 286.086 80.8319 277.545 80.8319C267.295 80.8319 259.363 74.0692 258.387 62.8798H309.759C310.125 60.5436 310.247 58.3303 310.247 55.9941C310.247 36.0747 296.702 22.6721 277.545 22.6721C257.655 22.6721 243.988 36.3206 243.988 57.5926C243.988 78.8646 258.265 92.636 277.545 92.636C294.018 92.636 304.634 83.1682 308.417 71.3641Z" fill="#0C3B33"/>
<path d="M319.3 57.3467C319.3 78.2498 333.333 92.636 350.782 92.636C362.009 92.636 370.062 87.2258 374.333 81.4467V91.5294H388.366V23.7787H374.333V33.6155C370.184 28.0823 362.375 22.6721 351.026 22.6721C333.333 22.6721 319.3 36.4435 319.3 57.3467ZM374.333 57.5926C374.333 72.2248 364.449 80.4631 353.955 80.4631C343.583 80.4631 333.577 71.9788 333.577 57.3467C333.577 42.7145 343.583 34.8451 353.955 34.8451C364.449 34.8451 374.333 43.0834 374.333 57.5926Z" fill="#0C3B33"/>
<path d="M406.637 91.5294H420.548V0.539368H406.637V91.5294Z" fill="#0C3B33"/>
<path d="M439.056 59.5599C439.056 82.3074 452.722 92.3901 470.05 92.3901C487.377 92.3901 501.044 82.3074 501.044 59.5599V5.5807H492.503V59.6829C492.503 77.512 483.473 84.7666 470.172 84.7666C456.871 84.7666 447.597 77.512 447.597 59.6829V5.5807H439.056V59.5599Z" fill="#0C3B33"/>
<path d="M566.222 73.7003C565.855 49.9691 526.442 59.6829 526.442 41.4849C526.442 35.5828 532.055 30.7874 540.962 30.7874C551.091 30.7874 556.582 36.4435 557.07 43.9441H565.611C564.879 31.0333 555.483 23.4098 541.207 23.4098C527.174 23.4098 517.778 31.6481 517.778 41.6078C517.778 66.8146 557.802 57.1007 557.802 73.7003C557.802 80.0942 552.433 85.2585 542.915 85.2585C532.055 85.2585 525.709 79.9712 524.977 72.5936H516.191C517.29 84.8896 527.906 92.5131 543.037 92.5131C556.826 92.5131 566.222 84.5207 566.222 73.7003Z" fill="#0C3B33"/>
<path d="M175.49 103.136H163.81V125.536H175.49V123.68H166.05V115.2H174.53V113.344H166.05V104.992H175.49V103.136ZM179.904 125.536H182.144V101.856H179.904V125.536ZM194.672 109.728C197.904 109.728 200.848 111.776 200.752 115.84H188.464C188.72 111.776 191.504 109.728 194.672 109.728ZM202.768 120H200.4C199.76 122.336 197.744 123.904 194.768 123.904C191.504 123.904 188.656 121.76 188.464 117.664H202.96C203.024 117.056 203.024 116.608 203.024 115.904C203.024 111.456 199.888 107.808 194.768 107.808C189.744 107.808 186.192 111.232 186.192 116.8C186.192 122.336 189.808 125.792 194.768 125.792C199.152 125.792 201.968 123.296 202.768 120ZM206.099 116.8C206.099 122.336 209.651 125.792 214.579 125.792C218.963 125.792 221.811 123.328 222.611 119.84H220.211C219.603 122.4 217.523 123.904 214.579 123.904C211.155 123.904 208.371 121.536 208.371 116.8C208.371 112.064 211.155 109.728 214.579 109.728C217.523 109.728 219.635 111.264 220.211 113.76H222.611C221.811 110.144 218.963 107.808 214.579 107.808C209.651 107.808 206.099 111.264 206.099 116.8ZM227.388 120.8C227.388 124.288 229.02 125.536 232.06 125.536H234.46V123.616H232.411C230.396 123.616 229.66 122.944 229.66 120.8V109.952H234.46V108.064H229.66V103.68H227.388V108.064H224.956V109.952H227.388V120.8ZM240.394 115.776C240.394 111.392 242.858 110.08 245.77 110.08H246.378V107.744C243.37 107.744 241.354 109.024 240.394 111.168V108.064H238.154V125.536H240.394V115.776ZM266.196 116.8C266.196 111.232 262.388 107.808 257.46 107.808C252.564 107.808 248.724 111.232 248.724 116.8C248.724 122.336 252.468 125.792 257.396 125.792C262.324 125.792 266.196 122.336 266.196 116.8ZM250.996 116.8C250.996 112 254.1 109.76 257.428 109.76C260.756 109.76 263.892 112 263.892 116.8C263.892 121.6 260.692 123.84 257.396 123.84C254.068 123.84 250.996 121.6 250.996 116.8ZM283.367 125.536H285.575V115.296C285.575 110.176 282.439 107.744 278.471 107.744C275.879 107.744 273.639 108.864 272.519 111.04V108.064H270.279V125.536H272.519V116C272.519 111.744 274.791 109.696 278.055 109.696C281.255 109.696 283.367 111.68 283.367 115.552V125.536ZM290.529 125.536H292.769V108.064H290.529V125.536ZM291.649 104.768C292.545 104.768 293.281 104.064 293.281 103.104C293.281 102.144 292.545 101.472 291.649 101.472C290.753 101.472 290.017 102.144 290.017 103.104C290.017 104.064 290.753 104.768 291.649 104.768ZM296.817 116.8C296.817 122.336 300.369 125.792 305.297 125.792C309.681 125.792 312.529 123.328 313.329 119.84H310.929C310.321 122.4 308.241 123.904 305.297 123.904C301.873 123.904 299.089 121.536 299.089 116.8C299.089 112.064 301.873 109.728 305.297 109.728C308.241 109.728 310.353 111.264 310.929 113.76H313.329C312.529 110.144 309.681 107.808 305.297 107.808C300.369 107.808 296.817 111.264 296.817 116.8ZM340.616 125.536H342.856V103.168H340.616V113.216H328.488V103.168H326.248V125.536H328.488V115.072H340.616V125.536ZM355.422 109.728C358.654 109.728 361.598 111.776 361.502 115.84H349.214C349.47 111.776 352.254 109.728 355.422 109.728ZM363.518 120H361.15C360.51 122.336 358.494 123.904 355.518 123.904C352.254 123.904 349.406 121.76 349.214 117.664H363.71C363.774 117.056 363.774 116.608 363.774 115.904C363.774 111.456 360.638 107.808 355.518 107.808C350.494 107.808 346.942 111.232 346.942 116.8C346.942 122.336 350.558 125.792 355.518 125.792C359.902 125.792 362.718 123.296 363.518 120ZM366.849 116.768C366.849 122.24 370.401 125.792 375.169 125.792C378.657 125.792 381.089 123.904 382.113 121.664V125.536H384.353V108.064H382.113V111.904C381.121 109.696 378.721 107.808 375.201 107.808C370.401 107.808 366.849 111.296 366.849 116.768ZM382.113 116.8C382.113 121.152 379.201 123.84 375.617 123.84C371.937 123.84 369.121 121.184 369.121 116.768C369.121 112.32 371.937 109.76 375.617 109.76C379.201 109.76 382.113 112.448 382.113 116.8ZM389.466 125.536H391.706V101.856H389.466V125.536ZM397.419 120.8C397.419 124.288 399.051 125.536 402.091 125.536H404.491V123.616H402.443C400.427 123.616 399.691 122.944 399.691 120.8V109.952H404.491V108.064H399.691V103.68H397.419V108.064H394.987V109.952H397.419V120.8ZM408.185 125.536H410.425V116C410.425 111.744 412.697 109.696 415.961 109.696C419.161 109.696 421.273 111.68 421.273 115.552V125.536H423.481V115.296C423.481 110.176 420.377 107.744 416.505 107.744C413.849 107.744 411.545 108.896 410.425 111.04V101.856H408.185V125.536ZM449.248 109.664C449.248 112.384 447.616 114.368 443.968 114.368H439.456V105.056H443.936C447.712 105.056 449.248 106.848 449.248 109.664ZM437.216 103.168V125.536H439.456V116.192H443.584L449.12 125.536H451.808L446.048 116.032C449.824 115.328 451.552 112.736 451.552 109.664C451.552 105.984 449.12 103.168 443.936 103.168H437.216ZM463.454 109.728C466.686 109.728 469.63 111.776 469.534 115.84H457.246C457.502 111.776 460.286 109.728 463.454 109.728ZM471.55 120H469.182C468.542 122.336 466.526 123.904 463.55 123.904C460.286 123.904 457.438 121.76 457.246 117.664H471.742C471.806 117.056 471.806 116.608 471.806 115.904C471.806 111.456 468.67 107.808 463.55 107.808C458.526 107.808 454.974 111.232 454.974 116.8C454.974 122.336 458.59 125.792 463.55 125.792C467.934 125.792 470.75 123.296 471.55 120ZM474.88 116.8C474.88 122.336 478.432 125.792 483.36 125.792C487.744 125.792 490.592 123.328 491.392 119.84H488.992C488.384 122.4 486.304 123.904 483.36 123.904C479.936 123.904 477.152 121.536 477.152 116.8C477.152 112.064 479.936 109.728 483.36 109.728C486.304 109.728 488.416 111.264 488.992 113.76H491.392C490.592 110.144 487.744 107.808 483.36 107.808C478.432 107.808 474.88 111.264 474.88 116.8ZM511.977 116.8C511.977 111.232 508.169 107.808 503.241 107.808C498.345 107.808 494.505 111.232 494.505 116.8C494.505 122.336 498.249 125.792 503.177 125.792C508.105 125.792 511.977 122.336 511.977 116.8ZM496.777 116.8C496.777 112 499.881 109.76 503.209 109.76C506.537 109.76 509.673 112 509.673 116.8C509.673 121.6 506.473 123.84 503.177 123.84C499.849 123.84 496.777 121.6 496.777 116.8ZM518.3 115.776C518.3 111.392 520.764 110.08 523.676 110.08H524.284V107.744C521.276 107.744 519.26 109.024 518.3 111.168V108.064H516.06V125.536H518.3V115.776ZM535.11 109.728C538.342 109.728 541.286 111.776 541.19 115.84H528.902C529.158 111.776 531.942 109.728 535.11 109.728ZM543.206 120H540.838C540.198 122.336 538.182 123.904 535.206 123.904C531.942 123.904 529.094 121.76 528.902 117.664H543.398C543.462 117.056 543.462 116.608 543.462 115.904C543.462 111.456 540.326 107.808 535.206 107.808C530.182 107.808 526.63 111.232 526.63 116.8C526.63 122.336 530.246 125.792 535.206 125.792C539.59 125.792 542.406 123.296 543.206 120ZM546.536 116.768C546.536 122.24 550.088 125.792 554.888 125.792C558.344 125.792 560.776 123.936 561.8 121.632V125.536H564.04V101.856H561.8V111.84C560.68 109.536 558.056 107.808 554.92 107.808C550.088 107.808 546.536 111.296 546.536 116.768ZM561.8 116.8C561.8 121.152 558.888 123.84 555.304 123.84C551.624 123.84 548.808 121.184 548.808 116.768C548.808 112.32 551.624 109.76 555.304 109.76C558.888 109.76 561.8 112.448 561.8 116.8Z" fill="#0C3B33"/>
</svg>
