<svg width="1531" height="770" viewBox="0 0 1531 770" fill="none" xmlns="http://www.w3.org/2000/svg">
<g opacity="0.1">
<path d="M659.386 106.13C625.299 106.13 594.62 104.796 564.09 106.13C542.184 107.904 521.789 118.001 507.097 134.347C492.405 150.693 484.533 172.045 485.097 194.016C525.409 186.902 569.129 208.836 605.291 175.342C613.294 206.761 598.474 229.289 565.869 230.03C519.777 231.215 473.833 231.512 427.89 230.03C423.385 228.826 419.245 226.535 415.834 223.356C412.423 220.178 409.845 216.209 408.327 211.8C395.137 125.101 467.609 36.0293 557.421 31.435C608.848 28.7673 661.165 30.6943 712.147 30.3979C727.857 30.3979 735.118 37.6597 734.97 53.3694C734.97 104.352 736.304 155.186 734.229 206.02C731.229 246.336 713.356 284.099 684.08 311.978C654.803 339.858 616.213 355.865 575.798 356.893C546.157 356.893 516.517 356.893 485.246 356.893L485.246 407.579C514.886 407.579 544.527 407.579 574.168 407.579C600.558 407.614 626.533 414.151 649.797 426.61C673.061 439.069 692.897 457.067 707.553 479.013C725.955 504.735 735.852 535.569 735.859 567.195C735.859 614.028 735.859 660.712 735.859 707.397C735.859 727.108 728.153 734.815 708.442 734.518C661.757 733.777 615.073 734.518 568.388 734.518C545.857 733.896 523.69 728.674 503.25 719.175C482.81 709.675 464.527 696.098 449.524 679.277C434.52 662.456 423.114 642.745 416.004 621.356C408.894 599.967 406.231 577.35 408.179 554.894C408.006 551.93 408.486 548.965 409.584 546.206C410.682 543.448 412.371 540.963 414.533 538.929C416.695 536.894 419.277 535.358 422.097 534.429C424.917 533.5 427.906 533.201 430.854 533.553C473.389 533.553 515.924 533.553 558.458 534.294C597.733 534.294 611.368 550.448 607.366 590.76C582.912 568.826 553.419 564.528 486.876 572.975C486.085 594.289 493.576 615.082 507.777 630.996C521.977 646.909 541.787 656.709 563.053 658.341C594.176 660.416 625.595 658.341 657.015 658.341C659.298 621.656 658.901 584.853 655.829 548.225C649.901 508.803 613.146 483.756 571.797 483.163C527.336 483.163 482.874 483.163 438.413 483.163C414.404 483.163 408.772 477.68 408.772 453.522C408.772 404.763 408.772 356.004 408.772 307.244C408.772 288.422 416.478 281.012 435.004 281.16C479.465 281.16 522.89 281.16 566.758 281.16C579.339 281.941 591.943 280.037 603.732 275.577C615.522 271.116 626.228 264.199 635.142 255.286C644.055 246.372 650.972 235.666 655.433 223.876C659.894 212.087 661.797 199.483 661.016 186.902L659.386 106.13Z" fill="white"/>
<path d="M280.574 570.57C240.263 577.536 196.246 555.75 160.084 589.393C152.97 555.306 167.494 535.001 202.471 534.408C245.598 533.519 288.874 534.408 332.002 534.408C351.713 534.408 358.827 543.449 358.53 562.716C357.048 664.977 287.689 734.633 186.02 734.929C144.128 734.929 102.284 734.929 60.4906 734.929C34.4066 734.929 30.8496 731.521 30.8496 706.474C30.8496 661.124 30.8496 615.773 30.8496 570.423C31.0846 527.34 48.364 486.101 78.9117 455.72C109.459 425.339 150.792 408.286 193.875 408.286C222.33 408.286 250.785 408.286 281.019 408.286L281.019 357.749C256.713 357.749 233.149 356.563 209.733 357.749C185.834 359.618 161.814 356.312 139.309 348.056C116.804 339.801 96.3442 326.79 79.3238 309.91C62.3033 293.031 49.1225 272.679 40.6805 250.243C32.2385 227.808 28.734 203.816 30.4051 179.903C32.9245 139.591 31.4425 98.983 30.4051 58.6713C30.4051 39.4047 36.7777 30.364 57.0817 30.6604C104.507 30.6604 151.933 30.6604 199.358 30.6604C220.992 31.4253 242.263 36.4446 261.957 45.432C281.651 54.4194 299.381 67.1985 314.134 83.0395C328.888 98.8805 340.377 117.473 347.943 137.755C355.51 158.037 359.007 179.611 358.234 201.244C357.345 225.105 351.861 230.885 328.593 230.885C289.665 230.885 250.687 230.885 211.659 230.885C169.569 230.885 157.268 217.695 158.75 169.232C173.571 195.168 194.468 194.427 215.809 193.982C237.151 193.537 258.937 193.982 280.278 193.982C281.221 172.631 273.964 151.728 259.995 135.553C246.025 119.379 226.399 109.159 205.138 106.986C173.422 104.614 141.41 106.986 108.36 106.986C106.5 141.848 106.797 176.792 109.25 211.618C112.654 231.841 123.297 250.134 139.195 263.087C155.094 276.04 175.16 282.768 195.653 282.016C240.115 282.016 284.576 281.275 329.038 281.275C353.492 281.275 358.679 286.166 358.679 310.916C358.679 359.527 357.641 408.286 357.937 457.045C357.937 476.905 349.787 484.315 330.075 484.019C286.355 483.278 242.338 484.019 198.617 484.019C186.353 483.445 174.106 485.444 162.66 489.885C151.214 494.326 140.824 501.113 132.157 509.808C123.49 518.503 116.737 528.915 112.332 540.374C107.928 551.834 105.969 564.089 106.582 576.351L106.582 658.752C141.855 658.752 175.349 661.272 208.251 658.752C229.143 655.747 248.154 645.029 261.539 628.708C274.925 612.388 281.715 591.647 280.574 570.57V570.57Z" fill="white"/>
</g>
<g opacity="0.1">
<path d="M1424.53 110.315C1390.44 110.315 1359.76 108.981 1329.23 110.315C1307.33 112.089 1286.93 122.186 1272.24 138.532C1257.55 154.878 1249.68 176.23 1250.24 198.201C1290.55 191.087 1334.27 213.021 1370.44 179.527C1378.44 210.947 1363.62 233.474 1331.01 234.215C1284.92 235.4 1238.98 235.697 1193.03 234.215C1188.53 233.012 1184.39 230.72 1180.98 227.541C1177.57 224.363 1174.99 220.394 1173.47 215.985C1160.28 129.286 1232.75 40.2144 1322.57 35.62C1373.99 32.9523 1426.31 34.8793 1477.29 34.5829C1493 34.5829 1500.26 41.8448 1500.11 57.5545C1500.11 108.537 1501.45 159.371 1499.37 210.205C1496.37 250.521 1478.5 288.284 1449.22 316.163C1419.95 344.043 1381.36 360.05 1340.94 361.078C1311.3 361.078 1281.66 361.078 1250.39 361.078L1250.39 411.764C1280.03 411.764 1309.67 411.764 1339.31 411.764C1365.7 411.8 1391.68 418.336 1414.94 430.795C1438.21 443.254 1458.04 461.252 1472.7 483.198C1491.1 508.92 1501 539.754 1501 571.38C1501 618.213 1501 664.898 1501 711.582C1501 731.293 1493.3 739 1473.59 738.703C1426.9 737.962 1380.22 738.703 1333.53 738.703C1311 738.081 1288.84 732.86 1268.39 723.36C1247.95 713.86 1229.67 700.283 1214.67 683.462C1199.66 666.641 1188.26 646.93 1181.15 625.541C1174.04 604.152 1171.38 581.535 1173.32 559.079C1173.15 556.115 1173.63 553.15 1174.73 550.391C1175.83 547.633 1177.52 545.148 1179.68 543.114C1181.84 541.079 1184.42 539.543 1187.24 538.614C1190.06 537.685 1193.05 537.386 1196 537.738C1238.53 537.738 1281.07 537.738 1323.6 538.479C1362.88 538.479 1376.51 554.633 1372.51 594.945C1348.06 573.011 1318.56 568.713 1252.02 577.16C1251.23 598.474 1258.72 619.267 1272.92 635.181C1287.12 651.095 1306.93 660.894 1328.2 662.526C1359.32 664.601 1390.74 662.526 1422.16 662.526C1424.44 625.841 1424.05 589.038 1420.97 552.41C1415.05 512.988 1378.29 487.941 1336.94 487.348C1292.48 487.348 1248.02 487.348 1203.56 487.348C1179.55 487.348 1173.92 481.865 1173.92 457.707C1173.92 408.948 1173.92 360.189 1173.92 311.429C1173.92 292.607 1181.62 285.197 1200.15 285.345C1244.61 285.345 1288.03 285.345 1331.9 285.345C1344.48 286.126 1357.09 284.222 1368.88 279.762C1380.67 275.301 1391.37 268.384 1400.29 259.471C1409.2 250.557 1416.12 239.851 1420.58 228.061C1425.04 216.272 1426.94 203.668 1426.16 191.087L1424.53 110.315Z" fill="white"/>
<path d="M1045.72 574.755C1005.41 581.721 961.391 559.935 925.229 593.578C918.115 559.491 932.639 539.186 967.615 538.593C1010.74 537.704 1054.02 538.593 1097.15 538.593C1116.86 538.593 1123.97 547.634 1123.67 566.901C1122.19 669.162 1052.83 738.818 951.165 739.115C909.272 739.115 867.429 739.115 825.635 739.115C799.551 739.115 795.994 735.706 795.994 710.659C795.994 665.309 795.994 619.958 795.994 574.608C796.229 531.525 813.509 490.286 844.056 459.905C874.604 429.524 915.936 412.471 959.02 412.471C987.475 412.471 1015.93 412.471 1046.16 412.471L1046.16 361.934C1021.86 361.934 998.293 360.748 974.877 361.934C950.979 363.803 926.958 360.497 904.454 352.242C881.949 343.986 861.489 330.975 844.468 314.095C827.448 297.216 814.267 276.864 805.825 254.429C797.383 231.993 793.878 208.001 795.55 184.088C798.069 143.776 796.587 103.168 795.55 62.8564C795.55 43.5897 801.922 34.549 822.226 34.8454C869.652 34.8454 917.077 34.8454 964.503 34.8454C986.137 35.6103 1007.41 40.6297 1027.1 49.6171C1046.8 58.6044 1064.53 71.3836 1079.28 87.2246C1094.03 103.066 1105.52 121.658 1113.09 141.94C1120.65 162.222 1124.15 183.796 1123.38 205.429C1122.49 229.29 1117.01 235.07 1093.74 235.07C1054.81 235.07 1015.83 235.07 976.804 235.07C934.714 235.07 922.413 221.88 923.895 173.417C938.715 199.353 959.612 198.612 980.954 198.167C1002.3 197.722 1024.08 198.167 1045.42 198.167C1046.37 176.816 1039.11 155.913 1025.14 139.739C1011.17 123.564 991.544 113.344 970.283 111.171C938.567 108.8 906.555 111.171 873.505 111.171C871.644 146.033 871.941 180.978 874.394 215.803C877.798 236.026 888.442 254.319 904.34 267.272C920.238 280.225 940.305 286.953 960.798 286.201C1005.26 286.201 1049.72 285.46 1094.18 285.46C1118.64 285.46 1123.82 290.351 1123.82 315.101C1123.82 363.712 1122.79 412.471 1123.08 461.231C1123.08 481.09 1114.93 488.5 1095.22 488.204C1051.5 487.463 1007.48 488.204 963.762 488.204C951.498 487.631 939.25 489.629 927.805 494.07C916.359 498.511 905.969 505.298 897.302 513.993C888.634 522.688 881.881 533.1 877.477 544.56C873.073 556.019 871.114 568.274 871.727 580.536L871.727 662.938C906.999 662.938 940.494 665.457 973.395 662.938C994.288 659.932 1013.3 649.214 1026.68 632.893C1040.07 616.573 1046.86 595.832 1045.72 574.755V574.755Z" fill="white"/>
</g>
</svg>
