<svg width="182" height="42" viewBox="0 0 182 42" fill="none" xmlns="http://www.w3.org/2000/svg">
<path d="M53.6845 34.6685V36.8105H56.2045V37.787H53.6845V40.0235H56.5195V41H52.4875V33.692H56.5195V34.6685H53.6845Z" fill="#7D7D7D"/>
<path d="M59.1908 33.23V41H57.9938V33.23H59.1908Z" fill="#7D7D7D"/>
<path d="M66.0649 37.9655C66.0649 38.1825 66.0509 38.3785 66.0229 38.5535H61.6024C61.6374 39.0155 61.8089 39.3865 62.1169 39.6665C62.4249 39.9465 62.8029 40.0865 63.2509 40.0865C63.8949 40.0865 64.3499 39.817 64.6159 39.278H65.9074C65.7324 39.81 65.4139 40.2475 64.9519 40.5905C64.4969 40.9265 63.9299 41.0945 63.2509 41.0945C62.6979 41.0945 62.2009 40.972 61.7599 40.727C61.3259 40.475 60.9829 40.125 60.7309 39.677C60.4859 39.222 60.3634 38.697 60.3634 38.102C60.3634 37.507 60.4824 36.9855 60.7204 36.5375C60.9654 36.0825 61.3049 35.7325 61.7389 35.4875C62.1799 35.2425 62.6839 35.12 63.2509 35.12C63.7969 35.12 64.2834 35.239 64.7104 35.477C65.1374 35.715 65.4699 36.051 65.7079 36.485C65.9459 36.912 66.0649 37.4055 66.0649 37.9655ZM64.8154 37.5875C64.8084 37.1465 64.6509 36.793 64.3429 36.527C64.0349 36.261 63.6534 36.128 63.1984 36.128C62.7854 36.128 62.4319 36.261 62.1379 36.527C61.8439 36.786 61.6689 37.1395 61.6129 37.5875H64.8154Z" fill="#7D7D7D"/>
<path d="M66.8439 38.102C66.8439 37.507 66.9629 36.9855 67.2009 36.5375C67.4459 36.0825 67.7819 35.7325 68.2089 35.4875C68.6359 35.2425 69.1259 35.12 69.6789 35.12C70.3789 35.12 70.9564 35.288 71.4114 35.624C71.8734 35.953 72.1849 36.4255 72.3459 37.0415H71.0544C70.9494 36.7545 70.7814 36.5305 70.5504 36.3695C70.3194 36.2085 70.0289 36.128 69.6789 36.128C69.1889 36.128 68.7969 36.303 68.5029 36.653C68.2159 36.996 68.0724 37.479 68.0724 38.102C68.0724 38.725 68.2159 39.2115 68.5029 39.5615C68.7969 39.9115 69.1889 40.0865 69.6789 40.0865C70.3719 40.0865 70.8304 39.782 71.0544 39.173H72.3459C72.1779 39.761 71.8629 40.23 71.4009 40.58C70.9389 40.923 70.3649 41.0945 69.6789 41.0945C69.1259 41.0945 68.6359 40.972 68.2089 40.727C67.7819 40.475 67.4459 40.125 67.2009 39.677C66.9629 39.222 66.8439 38.697 66.8439 38.102Z" fill="#7D7D7D"/>
<path d="M74.9353 36.191V39.3935C74.9353 39.6105 74.9843 39.768 75.0823 39.866C75.1873 39.957 75.3623 40.0025 75.6073 40.0025H76.3423V41H75.3973C74.8583 41 74.4453 40.874 74.1583 40.622C73.8713 40.37 73.7278 39.9605 73.7278 39.3935V36.191H73.0453V35.2145H73.7278V33.776H74.9353V35.2145H76.3423V36.191H74.9353Z" fill="#7D7D7D"/>
<path d="M78.6425 36.0545C78.8175 35.7605 79.0485 35.533 79.3355 35.372C79.6295 35.204 79.976 35.12 80.375 35.12V36.359H80.0705C79.6015 36.359 79.2445 36.478 78.9995 36.716C78.7615 36.954 78.6425 37.367 78.6425 37.955V41H77.4455V35.2145H78.6425V36.0545Z" fill="#7D7D7D"/>
<path d="M83.9848 41.0945C83.4388 41.0945 82.9453 40.972 82.5043 40.727C82.0633 40.475 81.7168 40.125 81.4648 39.677C81.2128 39.222 81.0868 38.697 81.0868 38.102C81.0868 37.514 81.2163 36.9925 81.4753 36.5375C81.7343 36.0825 82.0878 35.7325 82.5358 35.4875C82.9838 35.2425 83.4843 35.12 84.0373 35.12C84.5903 35.12 85.0908 35.2425 85.5388 35.4875C85.9868 35.7325 86.3403 36.0825 86.5993 36.5375C86.8583 36.9925 86.9878 37.514 86.9878 38.102C86.9878 38.69 86.8548 39.2115 86.5888 39.6665C86.3228 40.1215 85.9588 40.475 85.4968 40.727C85.0418 40.972 84.5378 41.0945 83.9848 41.0945ZM83.9848 40.055C84.2928 40.055 84.5798 39.9815 84.8458 39.8345C85.1188 39.6875 85.3393 39.467 85.5073 39.173C85.6753 38.879 85.7593 38.522 85.7593 38.102C85.7593 37.682 85.6788 37.3285 85.5178 37.0415C85.3568 36.7475 85.1433 36.527 84.8773 36.38C84.6113 36.233 84.3243 36.1595 84.0163 36.1595C83.7083 36.1595 83.4213 36.233 83.1553 36.38C82.8963 36.527 82.6898 36.7475 82.5358 37.0415C82.3818 37.3285 82.3048 37.682 82.3048 38.102C82.3048 38.725 82.4623 39.208 82.7773 39.551C83.0993 39.887 83.5018 40.055 83.9848 40.055Z" fill="#7D7D7D"/>
<path d="M91.0901 35.12C91.5451 35.12 91.9511 35.2145 92.3081 35.4035C92.6721 35.5925 92.9556 35.8725 93.1586 36.2435C93.3616 36.6145 93.4631 37.0625 93.4631 37.5875V41H92.2766V37.766C92.2766 37.248 92.1471 36.8525 91.8881 36.5795C91.6291 36.2995 91.2756 36.1595 90.8276 36.1595C90.3796 36.1595 90.0226 36.2995 89.7566 36.5795C89.4976 36.8525 89.3681 37.248 89.3681 37.766V41H88.1711V35.2145H89.3681V35.876C89.5641 35.638 89.8126 35.4525 90.1136 35.3195C90.4216 35.1865 90.7471 35.12 91.0901 35.12Z" fill="#7D7D7D"/>
<path d="M95.5989 34.448C95.3819 34.448 95.1999 34.3745 95.0529 34.2275C94.9059 34.0805 94.8324 33.8985 94.8324 33.6815C94.8324 33.4645 94.9059 33.2825 95.0529 33.1355C95.1999 32.9885 95.3819 32.915 95.5989 32.915C95.8089 32.915 95.9874 32.9885 96.1344 33.1355C96.2814 33.2825 96.3549 33.4645 96.3549 33.6815C96.3549 33.8985 96.2814 34.0805 96.1344 34.2275C95.9874 34.3745 95.8089 34.448 95.5989 34.448ZM96.1869 35.2145V41H94.9899V35.2145H96.1869Z" fill="#7D7D7D"/>
<path d="M97.3595 38.102C97.3595 37.507 97.4785 36.9855 97.7165 36.5375C97.9615 36.0825 98.2975 35.7325 98.7245 35.4875C99.1515 35.2425 99.6415 35.12 100.194 35.12C100.894 35.12 101.472 35.288 101.927 35.624C102.389 35.953 102.7 36.4255 102.861 37.0415H101.57C101.465 36.7545 101.297 36.5305 101.066 36.3695C100.835 36.2085 100.544 36.128 100.194 36.128C99.7045 36.128 99.3125 36.303 99.0185 36.653C98.7315 36.996 98.588 37.479 98.588 38.102C98.588 38.725 98.7315 39.2115 99.0185 39.5615C99.3125 39.9115 99.7045 40.0865 100.194 40.0865C100.887 40.0865 101.346 39.782 101.57 39.173H102.861C102.693 39.761 102.378 40.23 101.916 40.58C101.454 40.923 100.88 41.0945 100.194 41.0945C99.6415 41.0945 99.1515 40.972 98.7245 40.727C98.2975 40.475 97.9615 40.125 97.7165 39.677C97.4785 39.222 97.3595 38.697 97.3595 38.102Z" fill="#7D7D7D"/>
<path d="M112.609 33.7025V41H111.412V37.808H107.979V41H106.782V33.7025H107.979V36.8315H111.412V33.7025H112.609Z" fill="#7D7D7D"/>
<path d="M119.488 37.9655C119.488 38.1825 119.474 38.3785 119.446 38.5535H115.025C115.06 39.0155 115.232 39.3865 115.54 39.6665C115.848 39.9465 116.226 40.0865 116.674 40.0865C117.318 40.0865 117.773 39.817 118.039 39.278H119.33C119.155 39.81 118.837 40.2475 118.375 40.5905C117.92 40.9265 117.353 41.0945 116.674 41.0945C116.121 41.0945 115.624 40.972 115.183 40.727C114.749 40.475 114.406 40.125 114.154 39.677C113.909 39.222 113.786 38.697 113.786 38.102C113.786 37.507 113.905 36.9855 114.143 36.5375C114.388 36.0825 114.728 35.7325 115.162 35.4875C115.603 35.2425 116.107 35.12 116.674 35.12C117.22 35.12 117.706 35.239 118.133 35.477C118.56 35.715 118.893 36.051 119.131 36.485C119.369 36.912 119.488 37.4055 119.488 37.9655ZM118.238 37.5875C118.231 37.1465 118.074 36.793 117.766 36.527C117.458 36.261 117.076 36.128 116.621 36.128C116.208 36.128 115.855 36.261 115.561 36.527C115.267 36.786 115.092 37.1395 115.036 37.5875H118.238Z" fill="#7D7D7D"/>
<path d="M120.267 38.081C120.267 37.5 120.386 36.9855 120.624 36.5375C120.869 36.0895 121.198 35.743 121.611 35.498C122.031 35.246 122.493 35.12 122.997 35.12C123.452 35.12 123.847 35.211 124.183 35.393C124.526 35.568 124.799 35.7885 125.002 36.0545V35.2145H126.21V41H125.002V40.139C124.799 40.412 124.523 40.6395 124.173 40.8215C123.823 41.0035 123.424 41.0945 122.976 41.0945C122.479 41.0945 122.024 40.9685 121.611 40.7165C121.198 40.4575 120.869 40.1005 120.624 39.6455C120.386 39.1835 120.267 38.662 120.267 38.081ZM125.002 38.102C125.002 37.703 124.918 37.3565 124.75 37.0625C124.589 36.7685 124.376 36.5445 124.11 36.3905C123.844 36.2365 123.557 36.1595 123.249 36.1595C122.941 36.1595 122.654 36.2365 122.388 36.3905C122.122 36.5375 121.905 36.758 121.737 37.052C121.576 37.339 121.495 37.682 121.495 38.081C121.495 38.48 121.576 38.83 121.737 39.131C121.905 39.432 122.122 39.663 122.388 39.824C122.661 39.978 122.948 40.055 123.249 40.055C123.557 40.055 123.844 39.978 124.11 39.824C124.376 39.67 124.589 39.446 124.75 39.152C124.918 38.851 125.002 38.501 125.002 38.102Z" fill="#7D7D7D"/>
<path d="M128.979 33.23V41H127.782V33.23H128.979Z" fill="#7D7D7D"/>
<path d="M131.947 36.191V39.3935C131.947 39.6105 131.996 39.768 132.094 39.866C132.199 39.957 132.374 40.0025 132.619 40.0025H133.354V41H132.409C131.87 41 131.457 40.874 131.17 40.622C130.883 40.37 130.739 39.9605 130.739 39.3935V36.191H130.057V35.2145H130.739V33.776H131.947V35.2145H133.354V36.191H131.947Z" fill="#7D7D7D"/>
<path d="M137.45 35.12C137.891 35.12 138.283 35.2145 138.626 35.4035C138.976 35.5925 139.249 35.8725 139.445 36.2435C139.648 36.6145 139.749 37.0625 139.749 37.5875V41H138.563V37.766C138.563 37.248 138.433 36.8525 138.174 36.5795C137.915 36.2995 137.562 36.1595 137.114 36.1595C136.666 36.1595 136.309 36.2995 136.043 36.5795C135.784 36.8525 135.654 37.248 135.654 37.766V41H134.457V33.23H135.654V35.8865C135.857 35.6415 136.113 35.4525 136.421 35.3195C136.736 35.1865 137.079 35.12 137.45 35.12Z" fill="#7D7D7D"/>
<path d="M147.794 41L146.114 38.081H145.201V41H144.004V33.7025H146.524C147.084 33.7025 147.556 33.8005 147.941 33.9965C148.333 34.1925 148.624 34.455 148.813 34.784C149.009 35.113 149.107 35.4805 149.107 35.8865C149.107 36.3625 148.967 36.7965 148.687 37.1885C148.414 37.5735 147.99 37.836 147.416 37.976L149.222 41H147.794ZM145.201 37.1255H146.524C146.972 37.1255 147.308 37.0135 147.532 36.7895C147.763 36.5655 147.878 36.2645 147.878 35.8865C147.878 35.5085 147.766 35.2145 147.542 35.0045C147.318 34.7875 146.979 34.679 146.524 34.679H145.201V37.1255Z" fill="#7D7D7D"/>
<path d="M155.94 37.9655C155.94 38.1825 155.926 38.3785 155.898 38.5535H151.478C151.513 39.0155 151.684 39.3865 151.992 39.6665C152.3 39.9465 152.678 40.0865 153.126 40.0865C153.77 40.0865 154.225 39.817 154.491 39.278H155.783C155.608 39.81 155.289 40.2475 154.827 40.5905C154.372 40.9265 153.805 41.0945 153.126 41.0945C152.573 41.0945 152.076 40.972 151.635 40.727C151.201 40.475 150.858 40.125 150.606 39.677C150.361 39.222 150.239 38.697 150.239 38.102C150.239 37.507 150.358 36.9855 150.596 36.5375C150.841 36.0825 151.18 35.7325 151.614 35.4875C152.055 35.2425 152.559 35.12 153.126 35.12C153.672 35.12 154.159 35.239 154.586 35.477C155.013 35.715 155.345 36.051 155.583 36.485C155.821 36.912 155.94 37.4055 155.94 37.9655ZM154.691 37.5875C154.684 37.1465 154.526 36.793 154.218 36.527C153.91 36.261 153.529 36.128 153.074 36.128C152.661 36.128 152.307 36.261 152.013 36.527C151.719 36.786 151.544 37.1395 151.488 37.5875H154.691Z" fill="#7D7D7D"/>
<path d="M156.719 38.102C156.719 37.507 156.838 36.9855 157.076 36.5375C157.321 36.0825 157.657 35.7325 158.084 35.4875C158.511 35.2425 159.001 35.12 159.554 35.12C160.254 35.12 160.832 35.288 161.287 35.624C161.749 35.953 162.06 36.4255 162.221 37.0415H160.93C160.825 36.7545 160.657 36.5305 160.426 36.3695C160.195 36.2085 159.904 36.128 159.554 36.128C159.064 36.128 158.672 36.303 158.378 36.653C158.091 36.996 157.948 37.479 157.948 38.102C157.948 38.725 158.091 39.2115 158.378 39.5615C158.672 39.9115 159.064 40.0865 159.554 40.0865C160.247 40.0865 160.706 39.782 160.93 39.173H162.221C162.053 39.761 161.738 40.23 161.276 40.58C160.814 40.923 160.24 41.0945 159.554 41.0945C159.001 41.0945 158.511 40.972 158.084 40.727C157.657 40.475 157.321 40.125 157.076 39.677C156.838 39.222 156.719 38.697 156.719 38.102Z" fill="#7D7D7D"/>
<path d="M165.924 41.0945C165.378 41.0945 164.884 40.972 164.443 40.727C164.002 40.475 163.656 40.125 163.404 39.677C163.152 39.222 163.026 38.697 163.026 38.102C163.026 37.514 163.155 36.9925 163.414 36.5375C163.673 36.0825 164.027 35.7325 164.475 35.4875C164.923 35.2425 165.423 35.12 165.976 35.12C166.529 35.12 167.03 35.2425 167.478 35.4875C167.926 35.7325 168.279 36.0825 168.538 36.5375C168.797 36.9925 168.927 37.514 168.927 38.102C168.927 38.69 168.794 39.2115 168.528 39.6665C168.262 40.1215 167.898 40.475 167.436 40.727C166.981 40.972 166.477 41.0945 165.924 41.0945ZM165.924 40.055C166.232 40.055 166.519 39.9815 166.785 39.8345C167.058 39.6875 167.278 39.467 167.446 39.173C167.614 38.879 167.698 38.522 167.698 38.102C167.698 37.682 167.618 37.3285 167.457 37.0415C167.296 36.7475 167.082 36.527 166.816 36.38C166.55 36.233 166.263 36.1595 165.955 36.1595C165.647 36.1595 165.36 36.233 165.094 36.38C164.835 36.527 164.629 36.7475 164.475 37.0415C164.321 37.3285 164.244 37.682 164.244 38.102C164.244 38.725 164.401 39.208 164.716 39.551C165.038 39.887 165.441 40.055 165.924 40.055Z" fill="#7D7D7D"/>
<path d="M171.307 36.0545C171.482 35.7605 171.713 35.533 172 35.372C172.294 35.204 172.641 35.12 173.04 35.12V36.359H172.735C172.266 36.359 171.909 36.478 171.664 36.716C171.426 36.954 171.307 37.367 171.307 37.955V41H170.11V35.2145H171.307V36.0545Z" fill="#7D7D7D"/>
<path d="M173.741 38.081C173.741 37.5 173.86 36.9855 174.098 36.5375C174.343 36.0895 174.672 35.743 175.085 35.498C175.505 35.246 175.97 35.12 176.481 35.12C176.859 35.12 177.23 35.204 177.594 35.372C177.965 35.533 178.259 35.75 178.476 36.023V33.23H179.684V41H178.476V40.1285C178.28 40.4085 178.007 40.6395 177.657 40.8215C177.314 41.0035 176.919 41.0945 176.471 41.0945C175.967 41.0945 175.505 40.9685 175.085 40.7165C174.672 40.4575 174.343 40.1005 174.098 39.6455C173.86 39.1835 173.741 38.662 173.741 38.081ZM178.476 38.102C178.476 37.703 178.392 37.3565 178.224 37.0625C178.063 36.7685 177.85 36.5445 177.584 36.3905C177.318 36.2365 177.031 36.1595 176.723 36.1595C176.415 36.1595 176.128 36.2365 175.862 36.3905C175.596 36.5375 175.379 36.758 175.211 37.052C175.05 37.339 174.969 37.682 174.969 38.081C174.969 38.48 175.05 38.83 175.211 39.131C175.379 39.432 175.596 39.663 175.862 39.824C176.135 39.978 176.422 40.055 176.723 40.055C177.031 40.055 177.318 39.978 177.584 39.824C177.85 39.67 178.063 39.446 178.224 39.152C178.392 38.851 178.476 38.501 178.476 38.102Z" fill="#7D7D7D"/>
<path d="M69.5486 29.2425H74.0193V1.77826H69.5486V13.5543H56.7248V1.77826H52.2542V29.2425H56.7248V17.2294H69.5486V29.2425Z" fill="black"/>
<path d="M89.003 10.9067C92.3364 10.9067 94.9639 13.0406 95.0424 16.3995H83.0814C83.552 12.9616 85.9834 10.9067 89.003 10.9067ZM99.1209 22.7618H94.2973C93.4737 24.461 91.9443 25.8046 89.1991 25.8046C85.9049 25.8046 83.3559 23.6311 83.0421 20.0351H99.5523C99.6699 19.2843 99.7091 18.573 99.7091 17.8221C99.7091 11.4204 95.3561 7.11305 89.1991 7.11305C82.8068 7.11305 78.4146 11.4994 78.4146 18.3359C78.4146 25.1723 83.0029 29.5982 89.1991 29.5982C94.4933 29.5982 97.9052 26.5554 99.1209 22.7618Z" fill="black"/>
<path d="M102.619 18.2568C102.619 24.9747 107.128 29.5982 112.736 29.5982C116.344 29.5982 118.933 27.8594 120.305 26.0021V29.2425H124.815V7.4687H120.305V10.6301C118.972 8.85179 116.462 7.11305 112.815 7.11305C107.128 7.11305 102.619 11.5389 102.619 18.2568ZM120.305 18.3359C120.305 23.0384 117.129 25.686 113.756 25.686C110.423 25.686 107.207 22.9593 107.207 18.2568C107.207 13.5543 110.423 11.0252 113.756 11.0252C117.129 11.0252 120.305 13.6729 120.305 18.3359Z" fill="black"/>
<path d="M130.687 29.2425H135.158V0H130.687V29.2425Z" fill="black"/>
<path d="M141.106 18.9681C141.106 26.2788 145.498 29.5191 151.067 29.5191C156.636 29.5191 161.028 26.2788 161.028 18.9681V1.62019H158.283V19.0076C158.283 24.7376 155.381 27.0691 151.106 27.0691C146.831 27.0691 143.851 24.7376 143.851 19.0076V1.62019H141.106V18.9681Z" fill="black"/>
<path d="M181.975 23.5126C181.857 15.8858 169.19 19.0076 169.19 13.1591C169.19 11.2623 170.994 9.72117 173.857 9.72117C177.112 9.72117 178.876 11.5389 179.033 13.9495H181.778C181.543 9.8002 178.524 7.35015 173.935 7.35015C169.425 7.35015 166.406 9.99779 166.406 13.1987C166.406 21.2996 179.269 18.1778 179.269 23.5126C179.269 25.5675 177.543 27.2272 174.484 27.2272C170.994 27.2272 168.955 25.5279 168.719 23.1569H165.896C166.249 27.1086 169.661 29.5587 174.523 29.5587C178.955 29.5587 181.975 26.9901 181.975 23.5126Z" fill="black"/>
<path d="M4.20928 6.05477C4.20928 7.93946 4.13553 9.6357 4.20928 11.3237C4.30735 12.5349 4.86564 13.6626 5.7694 14.4749C6.67316 15.2872 7.85373 15.7225 9.0685 15.6913C8.67517 13.4624 9.88795 11.0451 8.03603 9.04571C9.77323 8.60322 11.0188 9.42265 11.0597 11.2254C11.1253 13.7738 11.1417 16.3141 11.0597 18.8543C10.9932 19.1034 10.8665 19.3323 10.6908 19.5209C10.515 19.7095 10.2956 19.852 10.0518 19.9359C5.25816 20.6652 0.333364 16.6582 0.0793399 11.6925C-0.0681578 8.84903 0.0383873 5.95644 0.0219987 3.13759C0.0219987 2.269 0.42351 1.86749 1.29211 1.87569C4.11095 1.87569 6.92159 1.80193 9.73224 1.91665C11.9613 2.08255 14.0492 3.07076 15.5907 4.68946C17.1322 6.30815 18.0172 8.44185 18.0741 10.6764C18.0741 12.3152 18.0741 13.9541 18.0741 15.6831H20.8765C20.8765 14.0442 20.8765 12.4054 20.8765 10.7665C20.8785 9.30738 21.2399 7.87123 21.9288 6.58497C22.6176 5.2987 23.6127 4.20193 24.8262 3.39161C26.2484 2.37415 27.9531 1.82693 29.7018 1.82652C32.2912 1.82652 34.8724 1.82652 37.4536 1.82652C38.5435 1.82652 38.9696 2.25261 38.9532 3.34245C38.9122 5.92366 38.9532 8.50488 38.9532 11.0861C38.9187 12.3319 38.6301 13.5574 38.1048 14.6876C37.5796 15.8178 36.8289 16.8286 35.8988 17.6582C34.9688 18.4877 33.879 19.1184 32.6964 19.5115C31.5137 19.9046 30.2632 20.0518 29.0217 19.9441C28.8578 19.9537 28.6938 19.9272 28.5413 19.8665C28.3888 19.8058 28.2514 19.7124 28.1389 19.5928C28.0264 19.4733 27.9415 19.3305 27.8901 19.1746C27.8388 19.0187 27.8222 18.8534 27.8417 18.6904C27.8417 16.3386 27.8417 13.9869 27.8827 11.6351C27.8827 9.46362 28.7758 8.70973 31.0047 8.93098C29.7919 10.283 29.5543 11.9137 30.0214 15.593C31.1998 15.6366 32.3495 15.2225 33.2293 14.4373C34.1092 13.6522 34.6511 12.5569 34.7413 11.3811C34.856 9.66026 34.7413 7.92307 34.7413 6.18588C32.7129 6.05966 30.6781 6.08159 28.6529 6.25145C26.4732 6.57922 25.0884 8.6114 25.0556 10.8976C25.0556 13.3559 25.0556 15.8142 25.0556 18.2725C25.0556 19.6 24.7524 19.9114 23.4167 19.9114C20.7208 19.9114 18.0249 19.9114 15.329 19.9114C14.2883 19.9114 13.8786 19.4853 13.8868 18.461C13.8868 16.0027 13.8868 13.6017 13.8868 11.1762C13.9299 10.4806 13.8247 9.78374 13.578 9.13189C13.3314 8.48003 12.949 7.88807 12.4562 7.39525C11.9633 6.90242 11.3714 6.52 10.7195 6.27335C10.0677 6.02671 9.37081 5.92149 8.67519 5.96464L4.20928 6.05477Z" fill="#318371"/>
<path d="M29.8887 26.9994C30.2738 29.2283 29.0693 31.662 30.9294 33.6614C29.0447 34.0547 27.9221 33.2517 27.8893 31.3178C27.8401 28.9333 27.8893 26.5406 27.8893 24.156C27.8893 23.0662 28.3891 22.6728 29.4544 22.6892C35.1085 22.7712 38.9598 26.6061 38.9762 32.2274C38.9762 34.5437 38.9762 36.8572 38.9762 39.168C38.9762 40.6102 38.7877 40.8069 37.4029 40.8069C34.8954 40.8069 32.388 40.8069 29.8805 40.8069C27.4984 40.7939 25.2184 39.8385 23.5386 38.1495C21.8588 36.4605 20.9159 34.1752 20.9159 31.7931C20.9159 30.2198 20.9159 28.6465 20.9159 26.9749H18.1217C18.1217 28.3187 18.0561 29.6216 18.1217 30.9163C18.225 32.2377 18.0422 33.5658 17.5858 34.8101C17.1293 36.0544 16.41 37.1856 15.4767 38.1267C14.5434 39.0678 13.4181 39.7965 12.1777 40.2633C10.9372 40.7301 9.61064 40.9238 8.28848 40.8314C6.05963 40.6921 3.81439 40.7741 1.58554 40.8314C0.520274 40.8314 0.0204088 40.4791 0.0367975 39.3565C0.0367975 36.7343 0.0367975 34.1121 0.0367975 31.4899C0.0790884 30.2938 0.356613 29.1177 0.853528 28.0288C1.35044 26.9399 2.05701 25.9596 2.93287 25.1439C3.80872 24.3282 4.8367 23.693 5.9581 23.2746C7.07949 22.8562 8.27233 22.6629 9.46846 22.7056C10.7877 22.7548 11.1073 23.058 11.1073 24.3445C11.1073 26.4968 11.1073 28.652 11.1073 30.8098C11.1073 33.137 10.378 33.8171 7.69849 33.7352C9.13249 32.9157 9.09151 31.7603 9.06693 30.5804C9.04234 29.4004 9.06693 28.1958 9.06693 27.0158C7.88642 26.9637 6.73066 27.3649 5.83639 28.1373C4.94211 28.9097 4.37702 29.9948 4.25687 31.1703C4.12576 32.9239 4.25687 34.6939 4.25687 36.5212C6.18443 36.6241 8.11651 36.6077 10.0421 36.4721C11.1601 36.2839 12.1716 35.6954 12.8878 34.8164C13.604 33.9373 13.9759 32.8278 13.9344 31.6948C13.9344 29.2365 13.8934 26.7782 13.8934 24.3199C13.8934 22.9678 14.1638 22.681 15.5323 22.681C18.22 22.681 20.9159 22.7384 23.6118 22.722C24.7099 22.722 25.1196 23.1727 25.1032 24.2625C25.0622 26.6798 25.1032 29.1136 25.1032 31.5309C25.0715 32.209 25.182 32.8862 25.4276 33.519C25.6731 34.1518 26.0483 34.7263 26.5291 35.2055C27.0098 35.6847 27.5855 36.0581 28.2191 36.3016C28.8528 36.5451 29.5303 36.6534 30.2083 36.6196H34.7643C34.7643 34.6693 34.9036 32.8174 34.7643 30.9982C34.5981 29.8431 34.0055 28.792 33.1031 28.0519C32.2008 27.3118 31.054 26.9364 29.8887 26.9994Z" fill="#318371"/>
</svg>
