<svg width="294" height="33" viewBox="0 0 294 33" fill="none" xmlns="http://www.w3.org/2000/svg">
<path d="M3.13877 3.15291C3.13877 4.55829 3.08378 5.82314 3.13877 7.08187C3.2119 7.98504 3.6282 8.8259 4.30212 9.43163C4.97603 10.0374 5.85636 10.3619 6.76219 10.3387C6.4689 8.67666 7.37324 6.87412 5.99231 5.3832C7.2877 5.05324 8.21647 5.66428 8.24702 7.00855C8.2959 8.90886 8.30812 10.8031 8.24702 12.6973C8.19741 12.883 8.10293 13.0537 7.97188 13.1943C7.84083 13.335 7.67721 13.4412 7.49544 13.5038C3.9209 14.0476 0.248582 11.0597 0.0591621 7.35683C-0.0508238 5.23654 0.0286246 3.07959 0.016404 0.977638C0.016404 0.329943 0.315803 0.0305502 0.963498 0.0366605C3.06545 0.0366605 5.16129 -0.0183399 7.25713 0.0672047C8.9193 0.190916 10.4762 0.927804 11.6257 2.13483C12.7751 3.34186 13.4351 4.93292 13.4775 6.59915C13.4775 7.82122 13.4775 9.04327 13.4775 10.3326H15.5672C15.5672 9.11049 15.5672 7.88842 15.5672 6.66636C15.5687 5.57832 15.8381 4.50742 16.3518 3.54827C16.8655 2.58913 17.6075 1.7713 18.5124 1.16706C19.5729 0.408352 20.8441 0.000299902 22.148 0C24.0789 0 26.0036 0 27.9284 0C28.7411 0 29.0588 0.317722 29.0466 1.1304C29.016 3.05515 29.0466 4.97991 29.0466 6.90467C29.0209 7.83361 28.8056 8.74751 28.414 9.59024C28.0223 10.433 27.4626 11.1868 26.769 11.8053C26.0755 12.4239 25.2629 12.8942 24.381 13.1873C23.4992 13.4804 22.5667 13.5902 21.6409 13.5099C21.5187 13.5171 21.3964 13.4973 21.2827 13.452C21.1689 13.4068 21.0665 13.3371 20.9826 13.248C20.8987 13.1588 20.8354 13.0524 20.7971 12.9361C20.7588 12.8199 20.7465 12.6966 20.761 12.5751C20.761 10.8214 20.761 9.06773 20.7915 7.31407C20.7915 5.69483 21.4576 5.13267 23.1196 5.29765C22.2152 6.30585 22.038 7.52181 22.3863 10.2653C23.2651 10.2979 24.1223 9.98911 24.7784 9.40362C25.4345 8.81814 25.8386 8.00141 25.9059 7.12463C25.9914 5.84146 25.9059 4.54607 25.9059 3.25068C24.3934 3.15657 22.876 3.17291 21.3659 3.29958C19.7406 3.54399 18.7079 5.05934 18.6835 6.76412C18.6835 8.59722 18.6835 10.4303 18.6835 12.2634C18.6835 13.2533 18.4574 13.4855 17.4614 13.4855C15.4511 13.4855 13.4408 13.4855 11.4305 13.4855C10.6545 13.4855 10.349 13.1678 10.3551 12.404C10.3551 10.5709 10.3551 8.78053 10.3551 6.97187C10.3873 6.45316 10.3088 5.93354 10.1249 5.44746C9.94096 4.96138 9.65579 4.51997 9.2883 4.15248C8.92081 3.78499 8.4794 3.49983 7.99332 3.31591C7.50725 3.13199 6.98762 3.05353 6.46891 3.08571L3.13877 3.15291Z" fill="#318371"/>
<path d="M22.2876 18.7709C22.5748 20.4329 21.6766 22.2476 23.0636 23.7386C21.6582 24.0319 20.8211 23.4331 20.7967 21.991C20.76 20.2129 20.7967 18.4287 20.7967 16.6506C20.7967 15.8379 21.1694 15.5446 21.9637 15.5568C26.1799 15.6179 29.0517 18.4776 29.0639 22.6693C29.0639 24.3964 29.0639 26.1216 29.0639 27.8447C29.0639 28.9201 28.9234 29.0668 27.8908 29.0668C26.021 29.0668 24.1512 29.0668 22.2815 29.0668C20.5052 29.0571 18.805 28.3447 17.5524 27.0852C16.2998 25.8258 15.5967 24.1217 15.5968 22.3454C15.5968 21.1722 15.5968 19.9991 15.5968 18.7525H13.5131C13.5131 19.7546 13.4643 20.7262 13.5131 21.6916C13.5902 22.6769 13.4539 23.6673 13.1136 24.5951C12.7732 25.523 12.2368 26.3665 11.5408 27.0682C10.8449 27.77 10.0058 28.3134 9.08082 28.6615C8.15583 29.0095 7.16665 29.154 6.18074 29.0851C4.51873 28.9812 2.84451 29.0423 1.1825 29.0851C0.388153 29.0851 0.0154139 28.8224 0.0276346 27.9853C0.0276346 26.0299 0.0276346 24.0746 0.0276346 22.1193C0.05917 21.2274 0.266114 20.3504 0.636654 19.5385C1.00719 18.7265 1.53407 17.9955 2.18717 17.3872C2.84028 16.779 3.60683 16.3053 4.44303 15.9933C5.27922 15.6814 6.1687 15.5372 7.06063 15.5691C8.0444 15.6057 8.2827 15.8318 8.2827 16.7911C8.2827 18.3961 8.2827 20.0031 8.2827 21.6122C8.2827 23.3475 7.73888 23.8547 5.7408 23.7936C6.81011 23.1825 6.77955 22.321 6.76122 21.4411C6.74288 20.5612 6.76122 19.663 6.76122 18.7831C5.88093 18.7442 5.01911 19.0434 4.35227 19.6194C3.68543 20.1953 3.26405 21.0045 3.17445 21.881C3.07669 23.1886 3.17445 24.5085 3.17445 25.8711C4.6118 25.9478 6.05251 25.9356 7.48835 25.8344C8.32209 25.6941 9.07631 25.2552 9.61035 24.5998C10.1444 23.9443 10.4218 23.117 10.3908 22.2721C10.3908 20.439 10.3602 18.6059 10.3602 16.7728C10.3602 15.7646 10.5619 15.5507 11.5823 15.5507C13.5865 15.5507 15.5968 15.5935 17.6071 15.5813C18.4258 15.5813 18.7314 15.9173 18.7191 16.73C18.6886 18.5326 18.7191 20.3473 18.7191 22.1499C18.6955 22.6555 18.7779 23.1605 18.961 23.6324C19.1441 24.1043 19.4239 24.5326 19.7824 24.89C20.1409 25.2473 20.5701 25.5257 21.0426 25.7073C21.5151 25.8889 22.0203 25.9697 22.5259 25.9444H25.9232C25.9232 24.4901 26.0271 23.1092 25.9232 21.7527C25.7993 20.8913 25.3574 20.1076 24.6845 19.5557C24.0117 19.0038 23.1565 18.7238 22.2876 18.7709Z" fill="#318371"/>
<path d="M51.859 21.9349H55.1927V1.45541H51.859V10.2366H42.2966V1.45541H38.9629V21.9349H42.2966V12.977H51.859V21.9349Z" fill="black"/>
<path d="M66.3658 8.26228C68.8514 8.26228 70.8107 9.85349 70.8692 12.3582H61.9501C62.301 9.79456 64.1141 8.26228 66.3658 8.26228ZM73.9104 17.1024H70.3136C69.6995 18.3694 68.559 19.3713 66.512 19.3713C64.0556 19.3713 62.1548 17.7506 61.9209 15.0691H74.2321C74.3199 14.5093 74.3491 13.9789 74.3491 13.419C74.3491 8.64535 71.1031 5.43345 66.512 5.43345C61.7454 5.43345 58.4702 8.70428 58.4702 13.8021C58.4702 18.8999 61.8916 22.2002 66.512 22.2002C70.4598 22.2002 73.0039 19.9312 73.9104 17.1024Z" fill="black"/>
<path d="M76.5186 13.7431C76.5186 18.7525 79.8815 22.2002 84.0632 22.2002C86.7536 22.2002 88.6836 20.9036 89.7071 19.5187V21.9349H93.07V5.69865H89.7071V8.05601C88.7128 6.72999 86.8413 5.43345 84.1217 5.43345C79.8815 5.43345 76.5186 8.73375 76.5186 13.7431ZM89.7071 13.8021C89.7071 17.3086 87.3384 19.2829 84.8235 19.2829C82.3379 19.2829 79.94 17.2497 79.94 13.7431C79.94 10.2366 82.3379 8.35068 84.8235 8.35068C87.3384 8.35068 89.7071 10.325 89.7071 13.8021Z" fill="black"/>
<path d="M97.4487 21.9349H100.782V0.129395H97.4487V21.9349Z" fill="black"/>
<path d="M105.218 14.2735C105.218 19.7249 108.493 22.1412 112.645 22.1412C116.798 22.1412 120.073 19.7249 120.073 14.2735V1.33754H118.026V14.303C118.026 18.5757 115.862 20.3143 112.675 20.3143C109.487 20.3143 107.265 18.5757 107.265 14.303V1.33754H105.218V14.2735Z" fill="black"/>
<path d="M135.693 17.6622C135.605 11.9751 126.16 14.303 126.16 9.94189C126.16 8.52748 127.505 7.37827 129.639 7.37827C132.067 7.37827 133.383 8.73375 133.5 10.5312H135.547C135.371 7.4372 133.119 5.61025 129.698 5.61025C126.335 5.61025 124.083 7.58454 124.083 9.97136C124.083 16.0121 133.675 13.6842 133.675 17.6622C133.675 19.1945 132.388 20.4321 130.107 20.4321C127.505 20.4321 125.984 19.1651 125.809 17.397H123.703C123.966 20.3437 126.51 22.1707 130.137 22.1707C133.441 22.1707 135.693 20.2553 135.693 17.6622Z" fill="black"/>
<path d="M42.0646 24.7093H39.2012V29.8992H42.0646V29.2057H40.0512V27.6174H41.8409V26.9239H40.0512V25.4028H42.0646V24.7093Z" fill="#7D7D7D"/>
<path d="M43.1116 29.8992H43.9617V24.3812H43.1116V29.8992Z" fill="#7D7D7D"/>
<path d="M46.8077 26.4392C47.4416 26.4392 47.9412 26.8419 47.9561 27.4757H45.6818C45.7712 26.827 46.2336 26.4392 46.8077 26.4392ZM48.7316 28.6763H47.8144C47.6578 28.9969 47.367 29.2505 46.845 29.2505C46.2187 29.2505 45.734 28.8403 45.6743 28.1618H48.8136C48.836 28.0201 48.8434 27.8859 48.8434 27.7442C48.8434 26.5362 48.0157 25.7234 46.845 25.7234C45.6296 25.7234 44.7944 26.5511 44.7944 27.8411C44.7944 29.1312 45.6669 29.9663 46.845 29.9663C47.8517 29.9663 48.5004 29.3921 48.7316 28.6763Z" fill="#7D7D7D"/>
<path d="M49.3966 27.8411C49.3966 29.1312 50.2318 29.9663 51.41 29.9663C52.4167 29.9663 53.0729 29.4071 53.304 28.6017H52.3868C52.2302 29.0268 51.917 29.2505 51.41 29.2505C50.724 29.2505 50.2691 28.7434 50.2691 27.8411C50.2691 26.9463 50.724 26.4392 51.41 26.4392C51.917 26.4392 52.2451 26.6928 52.3868 27.088H53.304C53.0729 26.223 52.4167 25.7234 51.41 25.7234C50.2318 25.7234 49.3966 26.5586 49.3966 27.8411Z" fill="#7D7D7D"/>
<path d="M54.2854 28.7583C54.2854 29.5935 54.7403 29.8992 55.471 29.8992H56.1421V29.1908H55.6202C55.2622 29.1908 55.1429 29.064 55.1429 28.7583V26.484H56.1421V25.7905H55.1429V24.7689H54.2854V25.7905H53.8007V26.484H54.2854V28.7583Z" fill="#7D7D7D"/>
<path d="M57.7757 27.7367C57.7757 26.8643 58.1635 26.6033 58.7898 26.6033H59.0061V25.7234C58.4244 25.7234 58.0143 25.9769 57.7757 26.3871V25.7905H56.9256V29.8992H57.7757V27.7367Z" fill="#7D7D7D"/>
<path d="M63.7023 27.8411C63.7023 26.5511 62.7776 25.7234 61.6069 25.7234C60.4362 25.7234 59.5116 26.5511 59.5116 27.8411C59.5116 29.1312 60.3989 29.9663 61.5696 29.9663C62.7478 29.9663 63.7023 29.1312 63.7023 27.8411ZM60.3765 27.8411C60.3765 26.909 60.9507 26.4616 61.592 26.4616C62.2258 26.4616 62.8298 26.909 62.8298 27.8411C62.8298 28.7732 62.2035 29.2281 61.5696 29.2281C60.9284 29.2281 60.3765 28.7732 60.3765 27.8411Z" fill="#7D7D7D"/>
<path d="M67.4582 29.8992H68.3008V27.4757C68.3008 26.3274 67.5775 25.7234 66.6156 25.7234C66.1235 25.7234 65.6686 25.9247 65.3927 26.2603V25.7905H64.5426V29.8992H65.3927V27.6025C65.3927 26.8494 65.8028 26.4616 66.4292 26.4616C67.0481 26.4616 67.4582 26.8494 67.4582 27.6025V29.8992Z" fill="#7D7D7D"/>
<path d="M69.3852 29.8992H70.2352V25.7905H69.3852V29.8992ZM69.8177 25.2462C70.1159 25.2462 70.3546 25.0075 70.3546 24.7018C70.3546 24.3961 70.1159 24.1575 69.8177 24.1575C69.5119 24.1575 69.2733 24.3961 69.2733 24.7018C69.2733 25.0075 69.5119 25.2462 69.8177 25.2462Z" fill="#7D7D7D"/>
<path d="M71.068 27.8411C71.068 29.1312 71.9031 29.9663 73.0813 29.9663C74.088 29.9663 74.7442 29.4071 74.9753 28.6017H74.0581C73.9015 29.0268 73.5884 29.2505 73.0813 29.2505C72.3953 29.2505 71.9404 28.7434 71.9404 27.8411C71.9404 26.9463 72.3953 26.4392 73.0813 26.4392C73.5884 26.4392 73.9165 26.6928 74.0581 27.088H74.9753C74.7442 26.223 74.088 25.7234 73.0813 25.7234C71.9031 25.7234 71.068 26.5586 71.068 27.8411Z" fill="#7D7D7D"/>
<path d="M81.0479 29.8992H81.898V24.7167H81.0479V26.9389H78.6096V24.7167H77.7595V29.8992H78.6096V27.6323H81.0479V29.8992Z" fill="#7D7D7D"/>
<path d="M84.7471 26.4392C85.3809 26.4392 85.8805 26.8419 85.8954 27.4757H83.6211C83.7106 26.827 84.1729 26.4392 84.7471 26.4392ZM86.671 28.6763H85.7538C85.5972 28.9969 85.3064 29.2505 84.7844 29.2505C84.158 29.2505 83.6733 28.8403 83.6137 28.1618H86.753C86.7754 28.0201 86.7828 27.8859 86.7828 27.7442C86.7828 26.5362 85.9551 25.7234 84.7844 25.7234C83.5689 25.7234 82.7338 26.5511 82.7338 27.8411C82.7338 29.1312 83.6062 29.9663 84.7844 29.9663C85.791 29.9663 86.4398 29.3921 86.671 28.6763Z" fill="#7D7D7D"/>
<path d="M87.336 27.8262C87.336 29.0939 88.1935 29.9663 89.2599 29.9663C89.9459 29.9663 90.438 29.6382 90.699 29.2877V29.8992H91.5566V25.7905H90.699V26.3871C90.4455 26.0515 89.9683 25.7234 89.2748 25.7234C88.1935 25.7234 87.336 26.5586 87.336 27.8262ZM90.699 27.8411C90.699 28.7285 90.095 29.2281 89.4537 29.2281C88.8199 29.2281 88.2085 28.7136 88.2085 27.8262C88.2085 26.9389 88.8199 26.4616 89.4537 26.4616C90.095 26.4616 90.699 26.9612 90.699 27.8411Z" fill="#7D7D7D"/>
<path d="M92.6731 29.8992H93.5232V24.3812H92.6731V29.8992Z" fill="#7D7D7D"/>
<path d="M94.7735 28.7583C94.7735 29.5935 95.2283 29.8992 95.9591 29.8992H96.6302V29.1908H96.1082C95.7503 29.1908 95.631 29.064 95.631 28.7583V26.484H96.6302V25.7905H95.631V24.7689H94.7735V25.7905H94.2888V26.484H94.7735V28.7583Z" fill="#7D7D7D"/>
<path d="M97.4137 29.8992H98.2638V27.6025C98.2638 26.8494 98.6739 26.4616 99.3003 26.4616C99.9192 26.4616 100.329 26.8494 100.329 27.6025V29.8992H101.172V27.4757C101.172 26.3274 100.456 25.7234 99.5389 25.7234C99.0094 25.7234 98.5471 25.9247 98.2638 26.2677V24.3812H97.4137V29.8992Z" fill="#7D7D7D"/>
<path d="M106.945 26.2677C106.945 26.7823 106.647 27.1476 105.983 27.1476H105.043V25.4102H105.983C106.647 25.4102 106.945 25.7458 106.945 26.2677ZM104.193 24.7167V29.8992H105.043V27.8262H105.692L106.885 29.8992H107.899L106.617 27.7516C107.489 27.5354 107.817 26.8792 107.817 26.2677C107.817 25.4251 107.213 24.7167 105.983 24.7167H104.193Z" fill="#7D7D7D"/>
<path d="M110.635 26.4392C111.269 26.4392 111.768 26.8419 111.783 27.4757H109.509C109.598 26.827 110.061 26.4392 110.635 26.4392ZM112.559 28.6763H111.641C111.485 28.9969 111.194 29.2505 110.672 29.2505C110.046 29.2505 109.561 28.8403 109.501 28.1618H112.641C112.663 28.0201 112.67 27.8859 112.67 27.7442C112.67 26.5362 111.843 25.7234 110.672 25.7234C109.457 25.7234 108.621 26.5511 108.621 27.8411C108.621 29.1312 109.494 29.9663 110.672 29.9663C111.679 29.9663 112.327 29.3921 112.559 28.6763Z" fill="#7D7D7D"/>
<path d="M113.224 27.8411C113.224 29.1312 114.059 29.9663 115.237 29.9663C116.244 29.9663 116.9 29.4071 117.131 28.6017H116.214C116.057 29.0268 115.744 29.2505 115.237 29.2505C114.551 29.2505 114.096 28.7434 114.096 27.8411C114.096 26.9463 114.551 26.4392 115.237 26.4392C115.744 26.4392 116.072 26.6928 116.214 27.088H117.131C116.9 26.223 116.244 25.7234 115.237 25.7234C114.059 25.7234 113.224 26.5586 113.224 27.8411Z" fill="#7D7D7D"/>
<path d="M121.893 27.8411C121.893 26.5511 120.968 25.7234 119.798 25.7234C118.627 25.7234 117.702 26.5511 117.702 27.8411C117.702 29.1312 118.59 29.9663 119.76 29.9663C120.938 29.9663 121.893 29.1312 121.893 27.8411ZM118.567 27.8411C118.567 26.909 119.141 26.4616 119.783 26.4616C120.417 26.4616 121.021 26.909 121.021 27.8411C121.021 28.7732 120.394 29.2281 119.76 29.2281C119.119 29.2281 118.567 28.7732 118.567 27.8411Z" fill="#7D7D7D"/>
<path d="M123.583 27.7367C123.583 26.8643 123.971 26.6033 124.597 26.6033H124.814V25.7234C124.232 25.7234 123.822 25.9769 123.583 26.3871V25.7905H122.733V29.8992H123.583V27.7367Z" fill="#7D7D7D"/>
<path d="M127.325 26.4392C127.959 26.4392 128.459 26.8419 128.473 27.4757H126.199C126.289 26.827 126.751 26.4392 127.325 26.4392ZM129.249 28.6763H128.332C128.175 28.9969 127.884 29.2505 127.362 29.2505C126.736 29.2505 126.251 28.8403 126.192 28.1618H129.331C129.353 28.0201 129.361 27.8859 129.361 27.7442C129.361 26.5362 128.533 25.7234 127.362 25.7234C126.147 25.7234 125.312 26.5511 125.312 27.8411C125.312 29.1312 126.184 29.9663 127.362 29.9663C128.369 29.9663 129.018 29.3921 129.249 28.6763Z" fill="#7D7D7D"/>
<path d="M129.914 27.8262C129.914 29.0939 130.772 29.9663 131.853 29.9663C132.524 29.9663 133.016 29.6531 133.277 29.2803V29.8992H134.135V24.3812H133.277V26.3647C132.964 25.9769 132.397 25.7234 131.86 25.7234C130.772 25.7234 129.914 26.5586 129.914 27.8262ZM133.277 27.8411C133.277 28.7285 132.673 29.2281 132.032 29.2281C131.398 29.2281 130.786 28.7136 130.786 27.8262C130.786 26.9389 131.398 26.4616 132.032 26.4616C132.673 26.4616 133.277 26.9612 133.277 27.8411Z" fill="#7D7D7D"/>
<path d="M143.388 24.7148V21.6605H144.987C146.228 21.6605 146.753 22.2332 146.753 23.1996C146.753 24.1302 146.228 24.7148 144.987 24.7148H143.388ZM147.863 23.1996C147.863 21.8395 146.944 20.7657 144.987 20.7657H142.303V29.0815H143.388V25.6096H144.987C147.051 25.6096 147.863 24.4643 147.863 23.1996Z" fill="#7D7D7D"/>
<path d="M155.416 25.8005C155.416 23.7365 153.972 22.436 152.111 22.436C150.262 22.436 148.806 23.7365 148.806 25.8005C148.806 27.8765 150.214 29.1889 152.063 29.1889C153.925 29.1889 155.416 27.8765 155.416 25.8005ZM149.916 25.8005C149.916 24.1541 150.954 23.3786 152.099 23.3786C153.221 23.3786 154.306 24.1541 154.306 25.8005C154.306 27.4589 153.197 28.2344 152.063 28.2344C150.93 28.2344 149.916 27.4589 149.916 25.8005Z" fill="#7D7D7D"/>
<path d="M158.12 29.0815H159.242L160.816 23.8916L162.391 29.0815H163.513L165.553 22.5434H164.479L163 28.0435L161.413 22.5434H160.303L158.681 28.0316L157.178 22.5434H156.068L158.12 29.0815Z" fill="#7D7D7D"/>
<path d="M169.41 23.3547C170.532 23.3547 171.486 24.0586 171.474 25.3352H167.346C167.466 24.0586 168.349 23.3547 169.41 23.3547ZM172.465 27.0652H171.295C171.057 27.7691 170.436 28.2702 169.458 28.2702C168.349 28.2702 167.418 27.5424 167.334 26.2181H172.56C172.584 25.9914 172.596 25.8005 172.596 25.5619C172.596 23.7723 171.355 22.436 169.458 22.436C167.549 22.436 166.225 23.7365 166.225 25.8005C166.225 27.8765 167.597 29.1889 169.458 29.1889C171.081 29.1889 172.131 28.2583 172.465 27.0652Z" fill="#7D7D7D"/>
<path d="M175.115 25.5261C175.115 24.0109 175.902 23.5456 176.94 23.5456H177.227V22.4241C176.189 22.4241 175.485 22.8775 175.115 23.6053V22.5434H174.029V29.0815H175.115V25.5261Z" fill="#7D7D7D"/>
<path d="M181.26 23.3547C182.381 23.3547 183.336 24.0586 183.324 25.3352H179.196C179.315 24.0586 180.198 23.3547 181.26 23.3547ZM184.314 27.0652H183.145C182.906 27.7691 182.286 28.2702 181.307 28.2702C180.198 28.2702 179.267 27.5424 179.184 26.2181H184.409C184.433 25.9914 184.445 25.8005 184.445 25.5619C184.445 23.7723 183.204 22.436 181.307 22.436C179.399 22.436 178.074 23.7365 178.074 25.8005C178.074 27.8765 179.446 29.1889 181.307 29.1889C182.93 29.1889 183.98 28.2583 184.314 27.0652Z" fill="#7D7D7D"/>
<path d="M185.473 25.7886C185.473 27.8169 186.821 29.1889 188.575 29.1889C189.768 29.1889 190.615 28.5804 191.009 27.8527V29.0815H192.106V20.2527H191.009V23.7126C190.555 22.961 189.613 22.436 188.587 22.436C186.821 22.436 185.473 23.7484 185.473 25.7886ZM191.009 25.8005C191.009 27.3396 189.983 28.2344 188.79 28.2344C187.596 28.2344 186.582 27.3277 186.582 25.7886C186.582 24.2495 187.596 23.3786 188.79 23.3786C189.983 23.3786 191.009 24.2853 191.009 25.8005Z" fill="#7D7D7D"/>
<path d="M198.208 23.7604V20.2527H197.122V29.0815H198.208V27.8765C198.613 28.5924 199.46 29.1889 200.653 29.1889C202.407 29.1889 203.755 27.8169 203.755 25.7886C203.755 23.7484 202.419 22.436 200.653 22.436C199.496 22.436 198.625 23.0326 198.208 23.7604ZM202.646 25.7886C202.646 27.3277 201.632 28.2344 200.427 28.2344C199.246 28.2344 198.208 27.3396 198.208 25.8005C198.208 24.2853 199.246 23.3786 200.427 23.3786C201.632 23.3786 202.646 24.2495 202.646 25.7886Z" fill="#7D7D7D"/>
<path d="M207.666 27.8407L205.614 22.5434H204.409L207.046 29.0099L205.757 32.1597H206.879L210.816 22.5434H209.694L207.666 27.8407Z" fill="#7D7D7D"/>
<path d="M215.088 29.0815H216.174V22.9133L218.93 29.0815H219.693L222.437 22.9252V29.0815H223.523V20.8254H222.366L219.312 27.6498L216.257 20.8254H215.088V29.0815Z" fill="#7D7D7D"/>
<path d="M228.144 23.3547C229.266 23.3547 230.22 24.0586 230.208 25.3352H226.08C226.2 24.0586 227.082 23.3547 228.144 23.3547ZM231.199 27.0652H230.029C229.791 27.7691 229.17 28.2702 228.192 28.2702C227.082 28.2702 226.152 27.5424 226.068 26.2181H231.294C231.318 25.9914 231.33 25.8005 231.33 25.5619C231.33 23.7723 230.089 22.436 228.192 22.436C226.283 22.436 224.959 23.7365 224.959 25.8005C224.959 27.8765 226.331 29.1889 228.192 29.1889C229.815 29.1889 230.865 28.2583 231.199 27.0652Z" fill="#7D7D7D"/>
<path d="M232.357 25.7886C232.357 27.8169 233.706 29.1889 235.459 29.1889C236.652 29.1889 237.5 28.5804 237.893 27.8527V29.0815H238.991V20.2527H237.893V23.7126C237.44 22.961 236.497 22.436 235.471 22.436C233.706 22.436 232.357 23.7484 232.357 25.7886ZM237.893 25.8005C237.893 27.3396 236.867 28.2344 235.674 28.2344C234.481 28.2344 233.467 27.3277 233.467 25.7886C233.467 24.2495 234.481 23.3786 235.674 23.3786C236.867 23.3786 237.893 24.2853 237.893 25.8005Z" fill="#7D7D7D"/>
<path d="M240.42 25.8005C240.42 27.8765 241.744 29.1889 243.606 29.1889C245.228 29.1889 246.29 28.2822 246.624 26.9817H245.455C245.216 27.8049 244.572 28.2702 243.606 28.2702C242.412 28.2702 241.53 27.4231 241.53 25.8005C241.53 24.2018 242.412 23.3547 243.606 23.3547C244.572 23.3547 245.228 23.8558 245.455 24.6432H246.624C246.29 23.2712 245.228 22.436 243.606 22.436C241.744 22.436 240.42 23.7484 240.42 25.8005Z" fill="#7D7D7D"/>
<path d="M247.667 25.7886C247.667 27.8169 249.015 29.1889 250.757 29.1889C251.962 29.1889 252.809 28.5685 253.203 27.8646V29.0815H254.301V22.5434H253.203V23.7365C252.821 23.0564 251.986 22.436 250.769 22.436C249.015 22.436 247.667 23.7484 247.667 25.7886ZM253.203 25.8005C253.203 27.3396 252.177 28.2344 250.984 28.2344C249.791 28.2344 248.777 27.3277 248.777 25.7886C248.777 24.2495 249.791 23.3786 250.984 23.3786C252.177 23.3786 253.203 24.2853 253.203 25.8005Z" fill="#7D7D7D"/>
<path d="M257.221 25.5261C257.221 24.0109 258.009 23.5456 259.047 23.5456H259.333V22.4241C258.295 22.4241 257.591 22.8775 257.221 23.6053V22.5434H256.135V29.0815H257.221V25.5261Z" fill="#7D7D7D"/>
<path d="M263.366 23.3547C264.488 23.3547 265.442 24.0586 265.43 25.3352H261.302C261.421 24.0586 262.304 23.3547 263.366 23.3547ZM266.42 27.0652H265.251C265.012 27.7691 264.392 28.2702 263.414 28.2702C262.304 28.2702 261.374 27.5424 261.29 26.2181H266.516C266.54 25.9914 266.552 25.8005 266.552 25.5619C266.552 23.7723 265.311 22.436 263.414 22.436C261.505 22.436 260.18 23.7365 260.18 25.8005C260.18 27.8765 261.553 29.1889 263.414 29.1889C265.036 29.1889 266.086 28.2583 266.42 27.0652Z" fill="#7D7D7D"/>
<path d="M267.985 29.0815H269.07V22.9133L271.826 29.0815H272.59L275.334 22.9252V29.0815H276.42V20.8254H275.263L272.208 27.6498L269.154 20.8254H267.985V29.0815Z" fill="#7D7D7D"/>
<path d="M283.666 26.8147C283.666 23.7365 279.18 25.0728 279.18 22.9252C279.18 22.0304 279.884 21.5651 280.778 21.5889C281.793 21.6009 282.318 22.2332 282.389 22.794H283.582C283.451 21.5293 282.413 20.6583 280.826 20.6583C279.18 20.6583 278.07 21.5889 278.07 22.961C278.07 26.0511 282.568 24.6194 282.568 26.8624C282.568 27.6498 281.948 28.2464 280.898 28.2464C279.741 28.2464 279.251 27.5544 279.18 26.8624H278.022C278.046 28.2344 279.227 29.165 280.898 29.165C282.699 29.165 283.666 27.9958 283.666 26.8147Z" fill="#7D7D7D"/>
<path d="M293.209 24.9177C293.209 22.4241 291.384 20.6703 289.034 20.6703C286.695 20.6703 284.858 22.4241 284.858 24.9177C284.858 27.4112 286.695 29.165 289.034 29.165C291.384 29.165 293.209 27.4112 293.209 24.9177ZM285.967 24.9177C285.967 22.8775 287.28 21.6128 289.034 21.6128C290.787 21.6128 292.1 22.8775 292.1 24.9177C292.1 26.9459 290.787 28.2225 289.034 28.2225C287.28 28.2225 285.967 26.9459 285.967 24.9177Z" fill="#7D7D7D"/>
</svg>
